<svg width="291" height="290" viewBox="0 0 291 290" fill="none" xmlns="http://www.w3.org/2000/svg">
<path d="M44.4247 144.9V145.366H44.8911L44.8911 144.9L44.4247 144.9ZM1 144.9V144.434H0.533662V144.9H1ZM145.75 289.4V289.866H146.217V289.4H145.75ZM145.75 246.05H146.217V245.584H145.75V246.05ZM145.75 188.25V188.716H146.217V188.25H145.75ZM145.75 168.02H146.217V167.554H145.75V168.02ZM122.589 144.9H123.056V144.434H122.589V144.9ZM102.325 144.9L101.859 144.9V145.366H102.325V144.9ZM44.8911 144.9C44.8911 129.197 57.643 116.466 73.3748 116.466V115.534C57.1294 115.534 43.9585 128.681 43.9584 144.9L44.8911 144.9ZM1 145.366H44.4247V144.434H1V145.366ZM1.46634 254.72V144.9H0.533662V254.72H1.46634ZM35.68 288.934C16.7843 288.934 1.46634 273.616 1.46634 254.72H0.533662C0.533662 274.131 16.2692 289.866 35.68 289.866V288.934ZM145.75 288.934H35.68V289.866H145.75V288.934ZM145.284 246.05V289.4H146.217V246.05H145.284ZM145.75 246.516H145.75V245.584H145.75V246.516ZM116.334 217.15C116.334 233.369 129.505 246.516 145.75 246.516V245.584C130.018 245.584 117.266 232.853 117.266 217.15H116.334ZM145.75 187.784C129.505 187.784 116.334 200.931 116.334 217.15H117.266C117.266 201.447 130.018 188.716 145.75 188.716V187.784ZM145.75 187.784H145.75V188.716H145.75V187.784ZM145.284 168.02V188.25H146.217V168.02H145.284ZM145.75 167.554C145.75 167.554 145.75 167.554 145.75 167.554C145.75 167.554 145.75 167.554 145.75 167.554H145.75C145.75 167.554 145.75 167.554 145.75 167.554H145.75C145.75 167.554 145.75 167.554 145.75 167.554C145.75 167.554 145.75 167.554 145.75 167.554H145.75C145.75 167.554 145.75 167.554 145.75 167.554H145.75C145.75 167.554 145.75 167.554 145.75 167.554H145.75C145.75 167.554 145.75 167.554 145.75 167.554C145.75 167.554 145.75 167.554 145.75 167.554H145.75C145.75 167.554 145.75 167.554 145.75 167.554H145.75C145.75 167.554 145.75 167.554 145.75 167.554C145.75 167.554 145.75 167.554 145.75 167.554C145.75 167.554 145.75 167.554 145.75 167.554C145.75 167.554 145.75 167.554 145.75 167.554H145.75C145.75 167.554 145.75 167.554 145.75 167.554H145.75C145.75 167.554 145.75 167.554 145.75 167.554C145.75 167.554 145.75 167.554 145.75 167.554H145.75C145.75 167.554 145.75 167.554 145.75 167.554H145.75C145.75 167.554 145.75 167.554 145.75 167.554C145.75 167.554 145.75 167.554 145.75 167.554C145.75 167.554 145.75 167.554 145.75 167.554C145.75 167.554 145.75 167.554 145.75 167.554H145.75C145.75 167.554 145.75 167.554 145.75 167.554H145.75C145.75 167.554 145.75 167.554 145.75 167.554C145.75 167.554 145.75 167.554 145.75 167.554C145.75 167.554 145.75 167.554 145.75 167.554C145.75 167.554 145.75 167.554 145.75 167.554H145.75C145.75 167.554 145.75 167.554 145.75 167.554H145.75C145.75 167.554 145.75 167.554 145.75 167.554C145.75 167.554 145.75 167.554 145.75 167.554H145.75C145.75 167.554 145.75 167.554 145.75 167.554H145.75C145.75 167.554 145.75 167.554 145.75 167.554C145.75 167.554 145.75 167.554 145.75 167.554C145.75 167.554 145.75 167.554 145.75 167.554C145.75 167.554 145.75 167.554 145.75 167.554H145.75C145.75 167.554 145.75 167.554 145.75 167.554H145.75C145.75 167.554 145.75 167.554 145.75 167.554C145.75 167.554 145.75 167.554 145.75 167.554C145.75 167.554 145.75 167.554 145.75 167.554C145.75 167.554 145.75 167.554 145.75 167.554H145.749C145.749 167.554 145.749 167.554 145.749 167.554H145.749C145.749 167.554 145.749 167.554 145.749 167.554C145.749 167.554 145.749 167.554 145.749 167.554H145.749C145.749 167.554 145.749 167.554 145.749 167.554H145.749C145.749 167.554 145.749 167.554 145.749 167.554C145.749 167.554 145.749 167.554 145.749 167.554V168.486C145.749 168.486 145.749 168.486 145.749 168.486C145.749 168.486 145.749 168.486 145.749 168.486H145.749C145.749 168.486 145.749 168.486 145.749 168.486H145.749C145.749 168.486 145.749 168.486 145.749 168.486C145.749 168.486 145.749 168.486 145.749 168.486H145.749C145.749 168.486 145.749 168.486 145.749 168.486H145.75C145.75 168.486 145.75 168.486 145.75 168.486C145.75 168.486 145.75 168.486 145.75 168.486C145.75 168.486 145.75 168.486 145.75 168.486C145.75 168.486 145.75 168.486 145.75 168.486H145.75C145.75 168.486 145.75 168.486 145.75 168.486H145.75C145.75 168.486 145.75 168.486 145.75 168.486C145.75 168.486 145.75 168.486 145.75 168.486C145.75 168.486 145.75 168.486 145.75 168.486C145.75 168.486 145.75 168.486 145.75 168.486H145.75C145.75 168.486 145.75 168.486 145.75 168.486H145.75C145.75 168.486 145.75 168.486 145.75 168.486C145.75 168.486 145.75 168.486 145.75 168.486H145.75C145.75 168.486 145.75 168.486 145.75 168.486H145.75C145.75 168.486 145.75 168.486 145.75 168.486C145.75 168.486 145.75 168.486 145.75 168.486C145.75 168.486 145.75 168.486 145.75 168.486C145.75 168.486 145.75 168.486 145.75 168.486H145.75C145.75 168.486 145.75 168.486 145.75 168.486H145.75C145.75 168.486 145.75 168.486 145.75 168.486C145.75 168.486 145.75 168.486 145.75 168.486C145.75 168.486 145.75 168.486 145.75 168.486C145.75 168.486 145.75 168.486 145.75 168.486H145.75C145.75 168.486 145.75 168.486 145.75 168.486H145.75C145.75 168.486 145.75 168.486 145.75 168.486C145.75 168.486 145.75 168.486 145.75 168.486H145.75C145.75 168.486 145.75 168.486 145.75 168.486H145.75C145.75 168.486 145.75 168.486 145.75 168.486C145.75 168.486 145.75 168.486 145.75 168.486C145.75 168.486 145.75 168.486 145.75 168.486C145.75 168.486 145.75 168.486 145.75 168.486H145.75C145.75 168.486 145.75 168.486 145.75 168.486H145.75C145.75 168.486 145.75 168.486 145.75 168.486C145.75 168.486 145.75 168.486 145.75 168.486H145.75C145.75 168.486 145.75 168.486 145.75 168.486H145.75C145.75 168.486 145.75 168.486 145.75 168.486H145.75C145.75 168.486 145.75 168.486 145.75 168.486C145.75 168.486 145.75 168.486 145.75 168.486H145.75C145.75 168.486 145.75 168.486 145.75 168.486H145.75C145.75 168.486 145.75 168.486 145.75 168.486C145.75 168.486 145.75 168.486 145.75 168.486V167.554ZM145.749 167.554C133.215 167.554 123.056 157.41 123.056 144.9H122.123C122.123 157.927 132.702 168.486 145.749 168.486V167.554ZM102.325 145.366L122.589 145.366V144.434L102.325 144.434V145.366ZM73.3748 116.466C89.1067 116.466 101.859 129.197 101.859 144.9L102.791 144.9C102.791 128.681 89.6203 115.534 73.3748 115.534V116.466Z" fill="white" fill-opacity="0.47"/>
<path d="M145.25 1V0.533662H144.783V1H145.25ZM145.25 44.3501H144.783V44.8164L145.25 44.8164L145.25 44.3501ZM145.25 102.15L145.25 101.684L144.783 101.684V102.15H145.25ZM145.25 122.38H144.783V122.846L145.25 122.846L145.25 122.38ZM168.409 145.5H167.942V145.966H168.409L168.409 145.5ZM188.674 145.5H189.141V145.034H188.674V145.5ZM246.575 145.5V145.034H246.108V145.5H246.575ZM290 145.5V145.966H290.466V145.5H290ZM145.25 1.46634H255.32V0.533662H145.25V1.46634ZM145.716 44.3501V1H144.783V44.3501H145.716ZM174.666 73.2501C174.666 57.0309 161.495 43.8839 145.25 43.8838L145.25 44.8164C160.981 44.8166 173.733 57.5475 173.733 73.2501H174.666ZM145.25 102.616C161.495 102.616 174.666 89.4693 174.666 73.2501H173.733C173.733 88.9527 160.981 101.684 145.25 101.684L145.25 102.616ZM145.716 122.38V102.15H144.783V122.38H145.716ZM145.25 122.846C157.783 122.847 167.942 132.99 167.942 145.5H168.875C168.875 132.473 158.297 121.914 145.25 121.914L145.25 122.846ZM188.674 145.034L168.409 145.034L168.409 145.966L188.674 145.966V145.034ZM189.141 145.5V145.5H188.208V145.5H189.141ZM217.625 173.934C201.893 173.934 189.141 161.203 189.141 145.5H188.208C188.208 161.719 201.379 174.866 217.625 174.866V173.934ZM246.108 145.5C246.108 161.203 233.356 173.934 217.625 173.934V174.866C233.87 174.866 247.041 161.719 247.041 145.5H246.108ZM246.108 145.5V145.5H247.041V145.5H246.108ZM290 145.034H246.575V145.966H290V145.034ZM289.534 35.68V145.5H290.466V35.68H289.534ZM255.32 1.46634C274.216 1.46634 289.534 16.7843 289.534 35.68H290.466C290.466 16.2692 274.731 0.533662 255.32 0.533662V1.46634Z" fill="white" fill-opacity="0.47"/>
<path d="M168.309 145V144.534H167.843V145H168.309ZM145.15 168.12L145.15 167.654L144.683 167.654V168.12H145.15ZM188.574 145H189.041V144.534H188.574V145ZM246.475 145V144.534H246.008V145H246.475ZM289.9 145H290.366V144.534H289.9V145ZM145.15 289.5H144.683V289.966H145.15V289.5ZM145.15 246.15H145.616V245.684H145.15V246.15ZM145.15 188.35V188.816H145.616V188.35H145.15ZM167.843 145C167.843 157.51 157.683 167.653 145.15 167.654L145.15 168.586C158.197 168.586 168.775 158.027 168.775 145H167.843ZM188.574 144.534H168.309V145.466H188.574V144.534ZM189.041 145V145H188.108V145H189.041ZM217.524 173.434C201.793 173.434 189.041 160.703 189.041 145H188.108C188.108 161.219 201.279 174.366 217.524 174.366V173.434ZM246.008 145C246.008 160.703 233.256 173.434 217.524 173.434V174.366C233.77 174.366 246.941 161.219 246.941 145H246.008ZM246.008 145V145H246.941V145H246.008ZM289.9 144.534H246.475V145.466H289.9V144.534ZM290.366 254.82V145H289.434V254.82H290.366ZM255.22 289.966C274.631 289.966 290.366 274.231 290.366 254.82H289.434C289.434 273.716 274.116 289.034 255.22 289.034V289.966ZM145.15 289.966H255.22V289.034H145.15V289.966ZM144.683 246.15V289.5H145.616V246.15H144.683ZM145.149 246.616H145.15V245.684H145.149V246.616ZM115.733 217.25C115.733 233.469 128.904 246.616 145.149 246.616V245.684C129.418 245.684 116.666 232.953 116.666 217.25H115.733ZM145.149 187.884C128.904 187.884 115.733 201.031 115.733 217.25H116.666C116.666 201.547 129.418 188.816 145.149 188.816V187.884ZM145.15 187.884H145.149V188.816H145.15V187.884ZM144.683 168.12V188.35H145.616V168.12H144.683Z" fill="white" fill-opacity="0.47"/>
<path d="M1 145.5H0.5V146H1V145.5ZM44.4247 145.5V146H44.9247L44.9247 145.5H44.4247ZM102.325 145.5H101.825V146H102.325V145.5ZM122.589 145.5V146H123.089V145.5H122.589ZM145.75 122.38V122.88H146.25V122.38H145.75ZM145.75 102.15V101.65L145.25 101.65V102.15H145.75ZM145.75 44.3501H145.25V44.8501L145.75 44.8501V44.3501ZM145.75 1H146.25V0.5H145.75V1ZM1.5 35.68C1.5 16.8029 16.8029 1.5 35.68 1.5V0.5C16.2506 0.5 0.5 16.2506 0.5 35.68H1.5ZM1.5 145.5V35.68H0.5V145.5H1.5ZM44.4247 145H1V146H44.4247V145ZM73.3748 116.1C57.1109 116.1 43.9248 129.262 43.9247 145.5H44.9247C44.9248 129.816 57.6615 117.1 73.3748 117.1V116.1ZM102.825 145.5C102.825 129.262 89.6388 116.1 73.3748 116.1V117.1C89.0882 117.1 101.825 129.816 101.825 145.5H102.825ZM122.589 145L102.325 145V146L122.589 146V145ZM123.089 145.5C123.089 133.008 133.234 122.88 145.749 122.88V121.88C132.683 121.88 122.089 132.454 122.089 145.5H123.089ZM145.749 122.88C145.749 122.88 145.749 122.88 145.749 122.88C145.749 122.88 145.749 122.88 145.749 122.88H145.749C145.749 122.88 145.749 122.88 145.749 122.88H145.749C145.749 122.88 145.749 122.88 145.749 122.88C145.749 122.88 145.749 122.88 145.749 122.88H145.749C145.749 122.88 145.749 122.88 145.749 122.88H145.75C145.75 122.88 145.75 122.88 145.75 122.88C145.75 122.88 145.75 122.88 145.75 122.88C145.75 122.88 145.75 122.88 145.75 122.88C145.75 122.88 145.75 122.88 145.75 122.88H145.75C145.75 122.88 145.75 122.88 145.75 122.88H145.75C145.75 122.88 145.75 122.88 145.75 122.88C145.75 122.88 145.75 122.88 145.75 122.88C145.75 122.88 145.75 122.88 145.75 122.88C145.75 122.88 145.75 122.88 145.75 122.88H145.75C145.75 122.88 145.75 122.88 145.75 122.88H145.75C145.75 122.88 145.75 122.88 145.75 122.88C145.75 122.88 145.75 122.88 145.75 122.88H145.75C145.75 122.88 145.75 122.88 145.75 122.88H145.75C145.75 122.88 145.75 122.88 145.75 122.88C145.75 122.88 145.75 122.88 145.75 122.88C145.75 122.88 145.75 122.88 145.75 122.88C145.75 122.88 145.75 122.88 145.75 122.88H145.75C145.75 122.88 145.75 122.88 145.75 122.88H145.75C145.75 122.88 145.75 122.88 145.75 122.88C145.75 122.88 145.75 122.88 145.75 122.88C145.75 122.88 145.75 122.88 145.75 122.88C145.75 122.88 145.75 122.88 145.75 122.88H145.75C145.75 122.88 145.75 122.88 145.75 122.88H145.75C145.75 122.88 145.75 122.88 145.75 122.88C145.75 122.88 145.75 122.88 145.75 122.88H145.75C145.75 122.88 145.75 122.88 145.75 122.88H145.75C145.75 122.88 145.75 122.88 145.75 122.88C145.75 122.88 145.75 122.88 145.75 122.88C145.75 122.88 145.75 122.88 145.75 122.88C145.75 122.88 145.75 122.88 145.75 122.88H145.75C145.75 122.88 145.75 122.88 145.75 122.88H145.75C145.75 122.88 145.75 122.88 145.75 122.88C145.75 122.88 145.75 122.88 145.75 122.88H145.75C145.75 122.88 145.75 122.88 145.75 122.88H145.75C145.75 122.88 145.75 122.88 145.75 122.88H145.75C145.75 122.88 145.75 122.88 145.75 122.88C145.75 122.88 145.75 122.88 145.75 122.88H145.75C145.75 122.88 145.75 122.88 145.75 122.88H145.75C145.75 122.88 145.75 122.88 145.75 122.88C145.75 122.88 145.75 122.88 145.75 122.88V121.88C145.75 121.88 145.75 121.88 145.75 121.88C145.75 121.88 145.75 121.88 145.75 121.88H145.75C145.75 121.88 145.75 121.88 145.75 121.88H145.75C145.75 121.88 145.75 121.88 145.75 121.88C145.75 121.88 145.75 121.88 145.75 121.88H145.75C145.75 121.88 145.75 121.88 145.75 121.88H145.75C145.75 121.88 145.75 121.88 145.75 121.88H145.75C145.75 121.88 145.75 121.88 145.75 121.88C145.75 121.88 145.75 121.88 145.75 121.88H145.75C145.75 121.88 145.75 121.88 145.75 121.88H145.75C145.75 121.88 145.75 121.88 145.75 121.88C145.75 121.88 145.75 121.88 145.75 121.88C145.75 121.88 145.75 121.88 145.75 121.88C145.75 121.88 145.75 121.88 145.75 121.88H145.75C145.75 121.88 145.75 121.88 145.75 121.88H145.75C145.75 121.88 145.75 121.88 145.75 121.88C145.75 121.88 145.75 121.88 145.75 121.88H145.75C145.75 121.88 145.75 121.88 145.75 121.88H145.75C145.75 121.88 145.75 121.88 145.75 121.88C145.75 121.88 145.75 121.88 145.75 121.88C145.75 121.88 145.75 121.88 145.75 121.88C145.75 121.88 145.75 121.88 145.75 121.88H145.75C145.75 121.88 145.75 121.88 145.75 121.88H145.75C145.75 121.88 145.75 121.88 145.75 121.88C145.75 121.88 145.75 121.88 145.75 121.88C145.75 121.88 145.75 121.88 145.75 121.88C145.75 121.88 145.75 121.88 145.75 121.88H145.75C145.75 121.88 145.75 121.88 145.75 121.88H145.75C145.75 121.88 145.75 121.88 145.75 121.88C145.75 121.88 145.75 121.88 145.75 121.88H145.75C145.75 121.88 145.75 121.88 145.75 121.88H145.75C145.75 121.88 145.75 121.88 145.75 121.88C145.75 121.88 145.75 121.88 145.75 121.88C145.75 121.88 145.75 121.88 145.75 121.88C145.75 121.88 145.75 121.88 145.75 121.88H145.75C145.75 121.88 145.75 121.88 145.75 121.88H145.75C145.75 121.88 145.75 121.88 145.75 121.88C145.75 121.88 145.75 121.88 145.75 121.88C145.75 121.88 145.75 121.88 145.75 121.88C145.75 121.88 145.75 121.88 145.75 121.88H145.749C145.749 121.88 145.749 121.88 145.749 121.88H145.749C145.749 121.88 145.749 121.88 145.749 121.88C145.749 121.88 145.749 121.88 145.749 121.88H145.749C145.749 121.88 145.749 121.88 145.749 121.88H145.749C145.749 121.88 145.749 121.88 145.749 121.88C145.749 121.88 145.749 121.88 145.749 121.88V122.88ZM145.25 102.15V122.38H146.25V102.15H145.25ZM174.2 73.2501C174.2 88.9341 161.464 101.65 145.75 101.65V102.65C162.014 102.65 175.2 89.488 175.2 73.2501H174.2ZM145.75 44.8501C161.464 44.8503 174.2 57.5661 174.2 73.2501H175.2C175.2 57.0122 162.014 43.8503 145.75 43.8501V44.8501ZM145.25 1V44.3501H146.25V1H145.25ZM35.68 1.5H145.75V0.5H35.68V1.5Z" fill="white" fill-opacity="0.47"/>
</svg>
