<svg width="39" height="32" viewBox="0 0 39 32" fill="none" xmlns="http://www.w3.org/2000/svg">
<path fill-rule="evenodd" clip-rule="evenodd" d="M9.17618 1.03027C4.69404 1.03027 1.06055 4.66377 1.06055 9.14591V31.7878H10.2878C10.2879 28.3905 13.042 25.6365 16.4393 25.6365C19.8367 25.6365 22.5908 28.3905 22.5909 31.7878H26.897C26.8971 29.0701 29.1003 26.8669 31.8181 26.8669V22.5607C35.2155 22.5607 37.9696 19.8066 37.9696 16.4092C37.9696 13.0118 35.2155 10.2577 31.8181 10.2577V1.03027H9.17618Z" fill="#0AAAC1"/>
<path d="M1.06055 31.7878H0.897971V31.9504H1.06055V31.7878ZM10.2878 31.7878V31.9504H10.4504L10.4504 31.7879L10.2878 31.7878ZM22.5909 31.7878L22.4283 31.7879L22.4283 31.9504H22.5909V31.7878ZM26.897 31.7878V31.9504H27.0596L27.0596 31.7879L26.897 31.7878ZM31.8181 26.8669L31.8181 27.0295L31.9807 27.0295V26.8669H31.8181ZM31.8181 22.5607V22.3981L31.6555 22.3981V22.5607H31.8181ZM31.8181 10.2577H31.6555V10.4203L31.8181 10.4203V10.2577ZM31.8181 1.03027H31.9807V0.867698H31.8181V1.03027ZM1.22312 9.14591C1.22312 4.75356 4.78383 1.19285 9.17618 1.19285V0.867698C4.60425 0.867698 0.897971 4.57398 0.897971 9.14591H1.22312ZM1.22312 31.7878V9.14591H0.897971V31.7878H1.22312ZM10.2878 31.6253H1.06055V31.9504H10.2878V31.6253ZM16.4393 25.4739C12.9522 25.4739 10.1254 28.3008 10.1253 31.7878L10.4504 31.7879C10.4505 28.4803 13.1318 25.7991 16.4393 25.7991V25.4739ZM22.7534 31.7878C22.7533 28.3008 19.9265 25.4739 16.4393 25.4739V25.7991C19.7469 25.7991 22.4282 28.4803 22.4283 31.7879L22.7534 31.7878ZM26.897 31.6253H22.5909V31.9504H26.897V31.6253ZM27.0596 31.7879C27.0597 29.1599 29.1901 27.0295 31.8181 27.0295L31.8181 26.7043C29.0105 26.7044 26.7346 28.9803 26.7344 31.7878L27.0596 31.7879ZM31.6555 22.5607V26.8669H31.9807V22.5607H31.6555ZM37.807 16.4092C37.807 19.7168 35.1257 22.3981 31.8181 22.3981V22.7233C35.3053 22.7233 38.1322 19.8964 38.1322 16.4092H37.807ZM31.8181 10.4203C35.1257 10.4203 37.807 13.1016 37.807 16.4092H38.1322C38.1322 12.922 35.3053 10.0951 31.8181 10.0951V10.4203ZM31.6555 1.03027V10.2577H31.9807V1.03027H31.6555ZM9.17618 1.19285H31.8181V0.867698H9.17618V1.19285Z" fill="white"/>
</svg>
