<svg width="39" height="32" viewBox="0 0 39 32" fill="none" xmlns="http://www.w3.org/2000/svg">
<path fill-rule="evenodd" clip-rule="evenodd" d="M9.1763 1.03027C4.69416 1.03027 1.06067 4.66377 1.06067 9.14591V31.7878H10.288C10.2881 28.3905 13.0421 25.6365 16.4395 25.6365C19.8368 25.6365 22.5909 28.3905 22.591 31.7878H26.8971C26.8973 29.0701 29.1005 26.8669 31.8182 26.8669V22.5607C35.2156 22.5607 37.9697 19.8066 37.9697 16.4092C37.9697 13.0118 35.2156 10.2577 31.8182 10.2577V1.03027H9.1763Z" fill="#0AAAC1"/>
<path d="M1.06067 31.7878H0.898093V31.9504H1.06067V31.7878ZM10.288 31.7878V31.9504H10.4505L10.4505 31.7879L10.288 31.7878ZM22.591 31.7878L22.4284 31.7879L22.4284 31.9504H22.591V31.7878ZM26.8971 31.7878V31.9504H27.0597L27.0597 31.7879L26.8971 31.7878ZM31.8182 26.8669L31.8182 27.0295L31.9808 27.0295V26.8669H31.8182ZM31.8182 22.5607V22.3981L31.6557 22.3981V22.5607H31.8182ZM31.8182 10.2577H31.6557V10.4203L31.8182 10.4203V10.2577ZM31.8182 1.03027H31.9808V0.867698H31.8182V1.03027ZM1.22324 9.14591C1.22324 4.75356 4.78395 1.19285 9.1763 1.19285V0.867698C4.60437 0.867698 0.898093 4.57398 0.898093 9.14591H1.22324ZM1.22324 31.7878V9.14591H0.898093V31.7878H1.22324ZM10.288 31.6253H1.06067V31.9504H10.288V31.6253ZM16.4395 25.4739C12.9524 25.4739 10.1255 28.3008 10.1254 31.7878L10.4505 31.7879C10.4506 28.4803 13.1319 25.7991 16.4395 25.7991V25.4739ZM22.7536 31.7878C22.7534 28.3008 19.9266 25.4739 16.4395 25.4739V25.7991C19.747 25.7991 22.4283 28.4803 22.4284 31.7879L22.7536 31.7878ZM26.8971 31.6253H22.591V31.9504H26.8971V31.6253ZM27.0597 31.7879C27.0598 29.1599 29.1902 27.0295 31.8182 27.0295L31.8182 26.7043C29.0107 26.7044 26.7347 28.9803 26.7345 31.7878L27.0597 31.7879ZM31.6557 22.5607V26.8669H31.9808V22.5607H31.6557ZM37.8072 16.4092C37.8072 19.7168 35.1258 22.3981 31.8182 22.3981V22.7233C35.3054 22.7233 38.1323 19.8964 38.1323 16.4092H37.8072ZM31.8182 10.4203C35.1258 10.4203 37.8072 13.1016 37.8072 16.4092H38.1323C38.1323 12.922 35.3054 10.0951 31.8182 10.0951V10.4203ZM31.6557 1.03027V10.2577H31.9808V1.03027H31.6557ZM9.1763 1.19285H31.8182V0.867698H9.1763V1.19285Z" fill="white"/>
</svg>
