<svg width="39" height="32" viewBox="0 0 39 32" fill="none" xmlns="http://www.w3.org/2000/svg">
<path fill-rule="evenodd" clip-rule="evenodd" d="M9.17624 1.03027C4.6941 1.03027 1.06061 4.66377 1.06061 9.14591V31.7878H10.2879C10.288 28.3905 13.0421 25.6365 16.4394 25.6365C19.8367 25.6365 22.5908 28.3905 22.5909 31.7878H26.8971C26.8972 29.0701 29.1004 26.8669 31.8182 26.8669V22.5607C35.2156 22.5607 37.9697 19.8066 37.9697 16.4092C37.9697 13.0118 35.2156 10.2577 31.8182 10.2577V1.03027H9.17624Z" fill="#D8EBED"/>
<path d="M1.06061 31.7878H0.898032V31.9504H1.06061V31.7878ZM10.2879 31.7878V31.9504H10.4505L10.4505 31.7879L10.2879 31.7878ZM22.5909 31.7878L22.4283 31.7879L22.4283 31.9504H22.5909V31.7878ZM26.8971 31.7878V31.9504H27.0596L27.0596 31.7879L26.8971 31.7878ZM31.8182 26.8669L31.8182 27.0295L31.9808 27.0295V26.8669H31.8182ZM31.8182 22.5607V22.3981L31.6556 22.3981V22.5607H31.8182ZM31.8182 10.2577H31.6556V10.4203L31.8182 10.4203V10.2577ZM31.8182 1.03027H31.9808V0.867698H31.8182V1.03027ZM1.22318 9.14591C1.22318 4.75356 4.78389 1.19285 9.17624 1.19285V0.867698C4.60431 0.867698 0.898032 4.57398 0.898032 9.14591H1.22318ZM1.22318 31.7878V9.14591H0.898032V31.7878H1.22318ZM10.2879 31.6253H1.06061V31.9504H10.2879V31.6253ZM16.4394 25.4739C12.9523 25.4739 10.1254 28.3008 10.1253 31.7878L10.4505 31.7879C10.4506 28.4803 13.1319 25.7991 16.4394 25.7991V25.4739ZM22.7535 31.7878C22.7534 28.3008 19.9265 25.4739 16.4394 25.4739V25.7991C19.7469 25.7991 22.4282 28.4803 22.4283 31.7879L22.7535 31.7878ZM26.8971 31.6253H22.5909V31.9504H26.8971V31.6253ZM27.0596 31.7879C27.0598 29.1599 29.1902 27.0295 31.8182 27.0295L31.8182 26.7043C29.0106 26.7044 26.7346 28.9803 26.7345 31.7878L27.0596 31.7879ZM31.6556 22.5607V26.8669H31.9808V22.5607H31.6556ZM37.8071 16.4092C37.8071 19.7168 35.1258 22.3981 31.8182 22.3981V22.7233C35.3053 22.7233 38.1322 19.8964 38.1322 16.4092H37.8071ZM31.8182 10.4203C35.1258 10.4203 37.8071 13.1016 37.8071 16.4092H38.1322C38.1322 12.922 35.3053 10.0951 31.8182 10.0951V10.4203ZM31.6556 1.03027V10.2577H31.9808V1.03027H31.6556ZM9.17624 1.19285H31.8182V0.867698H9.17624V1.19285Z" fill="black"/>
</svg>
