<svg width="32" height="39" viewBox="0 0 32 39" fill="none" xmlns="http://www.w3.org/2000/svg">
<path fill-rule="evenodd" clip-rule="evenodd" d="M23.1268 1.03027H0.484863V10.2577C3.88225 10.2577 6.63638 13.0118 6.63638 16.4092C6.63638 19.8066 3.88225 22.5607 0.484863 22.5607L0.484873 26.8668C3.20274 26.8668 5.40601 29.07 5.40608 31.7878H9.7121V31.7879C9.7121 35.1853 12.4662 37.9394 15.8636 37.9394C19.261 37.9394 22.0151 35.1853 22.0151 31.7879V31.7878H31.2424V9.14591C31.2424 4.66377 27.6089 1.03027 23.1268 1.03027Z" fill="#0AAAC1"/>
<path d="M0.484863 1.03027V0.867698H0.322287V1.03027H0.484863ZM0.484863 10.2577H0.322287V10.4203H0.484863V10.2577ZM0.484863 22.5607V22.3981H0.322287L0.322287 22.5607H0.484863ZM0.484873 26.8668H0.322297L0.322298 27.0293H0.484873V26.8668ZM5.40608 31.7878L5.24351 31.7878L5.24351 31.9504H5.40608V31.7878ZM9.7121 31.7878H9.87468V31.6253H9.7121V31.7878ZM22.0151 31.7878V31.6253H21.8526V31.7878H22.0151ZM31.2424 31.7878V31.9504H31.405V31.7878H31.2424ZM0.484863 1.19285H23.1268V0.867698H0.484863V1.19285ZM0.647439 10.2577V1.03027H0.322287V10.2577H0.647439ZM6.79895 16.4092C6.79895 12.922 3.97204 10.0951 0.484863 10.0951V10.4203C3.79246 10.4203 6.4738 13.1016 6.4738 16.4092H6.79895ZM0.484863 22.7233C3.97204 22.7233 6.79895 19.8964 6.79895 16.4092H6.4738C6.4738 19.7168 3.79246 22.3981 0.484863 22.3981V22.7233ZM0.647449 26.8668L0.647439 22.5607H0.322287L0.322297 26.8668H0.647449ZM0.484873 27.0293C3.11295 27.0293 5.24344 29.1598 5.24351 31.7878L5.56866 31.7878C5.56859 28.9802 3.29253 26.7042 0.484873 26.7042V27.0293ZM9.7121 31.6253H5.40608V31.9504H9.7121V31.6253ZM9.87468 31.7879V31.7878H9.54953V31.7879H9.87468ZM15.8636 37.7768C12.556 37.7768 9.87468 35.0955 9.87468 31.7879H9.54953C9.54953 35.2751 12.3764 38.102 15.8636 38.102V37.7768ZM21.8526 31.7879C21.8526 35.0955 19.1712 37.7768 15.8636 37.7768V38.102C19.3508 38.102 22.1777 35.2751 22.1777 31.7879H21.8526ZM21.8526 31.7878V31.7879H22.1777V31.7878H21.8526ZM31.2424 31.6253H22.0151V31.9504H31.2424V31.6253ZM31.0799 9.14591V31.7878H31.405V9.14591H31.0799ZM23.1268 1.19285C27.5192 1.19285 31.0799 4.75355 31.0799 9.14591H31.405C31.405 4.57398 27.6987 0.867698 23.1268 0.867698V1.19285Z" fill="white"/>
</svg>
