<svg width="32" height="39" viewBox="0 0 32 39" fill="none" xmlns="http://www.w3.org/2000/svg">
<path fill-rule="evenodd" clip-rule="evenodd" d="M23.1268 1.03027H0.484848V10.2577C3.88224 10.2577 6.63636 13.0118 6.63636 16.4092C6.63636 19.8066 3.88224 22.5607 0.484848 22.5607L0.484858 26.8668C3.20272 26.8668 5.406 29.07 5.40607 31.7878H9.71209V31.7879C9.71209 35.1853 12.4662 37.9394 15.8636 37.9394C19.261 37.9394 22.0151 35.1853 22.0151 31.7879V31.7878H31.2424V9.14591C31.2424 4.66377 27.6089 1.03027 23.1268 1.03027Z" fill="#D8EBED"/>
<path d="M0.484848 1.03027V0.867961H0.322535V1.03027H0.484848ZM0.484848 10.2577H0.322535V10.42H0.484848V10.2577ZM0.484848 22.5607V22.3984H0.322535L0.322535 22.5607H0.484848ZM0.484858 26.8668H0.322545L0.322546 27.0291H0.484858V26.8668ZM5.40607 31.7878L5.24376 31.7878L5.24376 31.9502H5.40607V31.7878ZM9.71209 31.7878H9.8744V31.6255H9.71209V31.7878ZM22.0151 31.7878V31.6255H21.8528V31.7878H22.0151ZM31.2424 31.7878V31.9502H31.4047V31.7878H31.2424ZM0.484848 1.19259H23.1268V0.867961H0.484848V1.19259ZM0.647161 10.2577V1.03027H0.322535V10.2577H0.647161ZM6.79868 16.4092C6.79868 12.9222 3.97188 10.0954 0.484848 10.0954V10.42C3.79259 10.42 6.47405 13.1014 6.47405 16.4092H6.79868ZM0.484848 22.723C3.97188 22.723 6.79868 19.8962 6.79868 16.4092H6.47405C6.47405 19.7169 3.79259 22.3984 0.484848 22.3984V22.723ZM0.647171 26.8668L0.647161 22.5607H0.322535L0.322545 26.8668H0.647171ZM0.484858 27.0291C3.11308 27.0291 5.24369 29.1596 5.24376 31.7878L5.56838 31.7878C5.56831 28.9803 3.29237 26.7044 0.484858 26.7044V27.0291ZM9.71209 31.6255H5.40607V31.9502H9.71209V31.6255ZM9.8744 31.7879V31.7878H9.54977V31.7879H9.8744ZM15.8636 37.7771C12.5559 37.7771 9.8744 35.0957 9.8744 31.7879H9.54977C9.54977 35.2749 12.3766 38.1017 15.8636 38.1017V37.7771ZM21.8528 31.7879C21.8528 35.0957 19.1713 37.7771 15.8636 37.7771V38.1017C19.3506 38.1017 22.1774 35.2749 22.1774 31.7879H21.8528ZM21.8528 31.7878V31.7879H22.1774V31.7878H21.8528ZM31.2424 31.6255H22.0151V31.9502H31.2424V31.6255ZM31.0801 9.14591V31.7878H31.4047V9.14591H31.0801ZM23.1268 1.19259C27.5193 1.19259 31.0801 4.75341 31.0801 9.14591H31.4047C31.4047 4.57412 27.6986 0.867961 23.1268 0.867961V1.19259Z" fill="black"/>
</svg>
