<svg width="32" height="39" viewBox="0 0 32 39" fill="none" xmlns="http://www.w3.org/2000/svg">
<path fill-rule="evenodd" clip-rule="evenodd" d="M23.1268 1.03027H0.484863V10.2577C3.88225 10.2577 6.63638 13.0118 6.63638 16.4092C6.63638 19.8066 3.88225 22.5607 0.484863 22.5607L0.484873 26.8668C3.20274 26.8668 5.40601 29.07 5.40608 31.7878H9.7121V31.7879C9.7121 35.1853 12.4662 37.9394 15.8636 37.9394C19.261 37.9394 22.0151 35.1853 22.0151 31.7879V31.7878H31.2424V9.14591C31.2424 4.66377 27.6089 1.03027 23.1268 1.03027Z" fill="#D8EBED"/>
<path d="M0.484863 1.03027V0.867961H0.322551V1.03027H0.484863ZM0.484863 10.2577H0.322551V10.42H0.484863V10.2577ZM0.484863 22.5607V22.3984H0.32255L0.322551 22.5607H0.484863ZM0.484873 26.8668H0.322561L0.322561 27.0291H0.484873V26.8668ZM5.40608 31.7878L5.24377 31.7878L5.24378 31.9502H5.40608V31.7878ZM9.7121 31.7878H9.87441V31.6255H9.7121V31.7878ZM22.0151 31.7878V31.6255H21.8528V31.7878H22.0151ZM31.2424 31.7878V31.9502H31.4047V31.7878H31.2424ZM0.484863 1.19259H23.1268V0.867961H0.484863V1.19259ZM0.647176 10.2577V1.03027H0.322551V10.2577H0.647176ZM6.79869 16.4092C6.79869 12.9222 3.97189 10.0954 0.484863 10.0954V10.42C3.79261 10.42 6.47407 13.1014 6.47407 16.4092H6.79869ZM0.484863 22.723C3.97189 22.723 6.79869 19.8962 6.79869 16.4092H6.47407C6.47407 19.7169 3.79261 22.3984 0.484863 22.3984V22.723ZM0.647186 26.8668L0.647176 22.5607H0.322551L0.322561 26.8668H0.647186ZM0.484873 27.0291C3.1131 27.0291 5.2437 29.1596 5.24377 31.7878L5.5684 31.7878C5.56833 28.9803 3.29238 26.7044 0.484873 26.7044V27.0291ZM9.7121 31.6255H5.40608V31.9502H9.7121V31.6255ZM9.87441 31.7879V31.7878H9.54979V31.7879H9.87441ZM15.8636 37.7771C12.5559 37.7771 9.87441 35.0957 9.87441 31.7879H9.54979C9.54979 35.2749 12.3766 38.1017 15.8636 38.1017V37.7771ZM21.8528 31.7879C21.8528 35.0957 19.1714 37.7771 15.8636 37.7771V38.1017C19.3506 38.1017 22.1774 35.2749 22.1774 31.7879H21.8528ZM21.8528 31.7878V31.7879H22.1774V31.7878H21.8528ZM31.2424 31.6255H22.0151V31.9502H31.2424V31.6255ZM31.0801 9.14591V31.7878H31.4047V9.14591H31.0801ZM23.1268 1.19259C27.5193 1.19259 31.0801 4.75341 31.0801 9.14591H31.4047C31.4047 4.57412 27.6986 0.867961 23.1268 0.867961V1.19259Z" fill="black"/>
</svg>
