<svg width="32" height="39" viewBox="0 0 32 39" fill="none" xmlns="http://www.w3.org/2000/svg">
<path fill-rule="evenodd" clip-rule="evenodd" d="M22.288 7.18179V7.18186H26.5942C26.5942 7.18187 26.5942 7.18187 26.5942 7.18188C26.5942 9.89978 28.7975 12.1031 31.5154 12.1031V16.4091H31.5153C28.1179 16.4091 25.3638 19.1632 25.3638 22.5606C25.3638 25.958 28.1179 28.7121 31.5153 28.7121H31.5154V37.9394H8.87345C4.39131 37.9394 0.757812 34.3059 0.757812 29.8238V7.18186H9.98497V7.18179C9.98497 3.7844 12.7391 1.03027 16.1365 1.03027C19.5339 1.03027 22.288 3.7844 22.288 7.18179Z" fill="#0AAAC1"/>
<path d="M22.288 7.18186H22.1254V7.34444H22.288V7.18186ZM26.5942 7.18186H26.7568V7.01929H26.5942V7.18186ZM31.5154 12.1031H31.678V11.9405L31.5154 11.9405V12.1031ZM31.5154 16.4091V16.5717H31.678V16.4091H31.5154ZM31.5154 28.7121H31.678V28.5496H31.5154V28.7121ZM31.5154 37.9394V38.102H31.678V37.9394H31.5154ZM0.757812 7.18186V7.01929H0.595237V7.18186H0.757812ZM9.98497 7.18186V7.34444H10.1475V7.18186H9.98497ZM22.4506 7.18186V7.18179H22.1254V7.18186H22.4506ZM26.5942 7.01929H22.288V7.34444H26.5942V7.01929ZM26.7568 7.18188C26.7568 7.18188 26.7568 7.18188 26.7568 7.18188C26.7568 7.18188 26.7568 7.18188 26.7568 7.18188C26.7568 7.18188 26.7568 7.18188 26.7568 7.18188C26.7568 7.18188 26.7568 7.18188 26.7568 7.18188C26.7568 7.18188 26.7568 7.18188 26.7568 7.18188C26.7568 7.18188 26.7568 7.18188 26.7568 7.18188C26.7568 7.18188 26.7568 7.18188 26.7568 7.18187V7.18187C26.7568 7.18187 26.7568 7.18187 26.7568 7.18187V7.18187C26.7568 7.18187 26.7568 7.18187 26.7568 7.18187V7.18187C26.7568 7.18187 26.7568 7.18187 26.7568 7.18187V7.18187C26.7568 7.18187 26.7568 7.18187 26.7568 7.18187V7.18187C26.7568 7.18187 26.7568 7.18187 26.7568 7.18187V7.18187C26.7568 7.18187 26.7568 7.18187 26.7568 7.18187V7.18187C26.7568 7.18187 26.7568 7.18187 26.7568 7.18187V7.18187C26.7568 7.18187 26.7568 7.18187 26.7568 7.18187V7.18187C26.7568 7.18187 26.7568 7.18187 26.7568 7.18187V7.18187C26.7568 7.18187 26.7568 7.18187 26.7568 7.18187V7.18186C26.7568 7.18186 26.7568 7.18186 26.7568 7.18186C26.7568 7.18186 26.7568 7.18186 26.7568 7.18186C26.7568 7.18186 26.7568 7.18186 26.7568 7.18186C26.7568 7.18186 26.7568 7.18186 26.7568 7.18186C26.7568 7.18186 26.7568 7.18186 26.7568 7.18186H26.4316C26.4316 7.18186 26.4316 7.18186 26.4316 7.18186C26.4316 7.18186 26.4316 7.18186 26.4316 7.18186C26.4316 7.18186 26.4316 7.18186 26.4316 7.18186C26.4316 7.18186 26.4316 7.18186 26.4316 7.18186C26.4316 7.18186 26.4316 7.18186 26.4316 7.18186V7.18187C26.4316 7.18187 26.4316 7.18187 26.4316 7.18187V7.18187C26.4316 7.18187 26.4316 7.18187 26.4316 7.18187V7.18187C26.4316 7.18187 26.4316 7.18187 26.4316 7.18187V7.18187C26.4316 7.18187 26.4316 7.18187 26.4316 7.18187V7.18187C26.4316 7.18187 26.4316 7.18187 26.4316 7.18187V7.18187C26.4316 7.18187 26.4316 7.18187 26.4316 7.18187V7.18187C26.4316 7.18187 26.4316 7.18187 26.4316 7.18187V7.18187C26.4316 7.18187 26.4316 7.18187 26.4316 7.18187V7.18187C26.4316 7.18187 26.4316 7.18187 26.4316 7.18187V7.18187C26.4316 7.18187 26.4316 7.18187 26.4316 7.18187V7.18187C26.4316 7.18188 26.4316 7.18188 26.4316 7.18188C26.4316 7.18188 26.4316 7.18188 26.4316 7.18188C26.4316 7.18188 26.4316 7.18188 26.4316 7.18188C26.4316 7.18188 26.4316 7.18188 26.4316 7.18188C26.4316 7.18188 26.4316 7.18188 26.4316 7.18188C26.4316 7.18188 26.4316 7.18188 26.4316 7.18188C26.4316 7.18188 26.4316 7.18188 26.4316 7.18188H26.7568ZM31.5154 11.9405C28.8873 11.9405 26.7568 9.80999 26.7568 7.18188H26.4316C26.4316 9.98957 28.7077 12.2657 31.5154 12.2657V11.9405ZM31.678 16.4091V12.1031H31.3528V16.4091H31.678ZM31.5153 16.5717H31.5154V16.2465H31.5153V16.5717ZM25.5263 22.5606C25.5263 19.253 28.2077 16.5717 31.5153 16.5717V16.2465C28.0281 16.2465 25.2012 19.0735 25.2012 22.5606H25.5263ZM31.5153 28.5496C28.2077 28.5496 25.5263 25.8682 25.5263 22.5606H25.2012C25.2012 26.0478 28.0281 28.8747 31.5153 28.8747V28.5496ZM31.5154 28.5496H31.5153V28.8747H31.5154V28.5496ZM31.678 37.9394V28.7121H31.3528V37.9394H31.678ZM8.87345 38.102H31.5154V37.7769H8.87345V38.102ZM0.595237 29.8238C0.595237 34.3957 4.30152 38.102 8.87345 38.102V37.7769C4.48109 37.7769 0.920388 34.2162 0.920388 29.8238H0.595237ZM0.595237 7.18186V29.8238H0.920388V7.18186H0.595237ZM9.98497 7.01929H0.757812V7.34444H9.98497V7.01929ZM9.82239 7.18179V7.18186H10.1475V7.18179H9.82239ZM16.1365 0.867698C12.6493 0.867698 9.82239 3.69461 9.82239 7.18179H10.1475C10.1475 3.87419 12.8289 1.19285 16.1365 1.19285V0.867698ZM22.4506 7.18179C22.4506 3.69461 19.6237 0.867698 16.1365 0.867698V1.19285C19.4441 1.19285 22.1254 3.87419 22.1254 7.18179H22.4506Z" fill="white"/>
</svg>
