<svg width="32" height="39" viewBox="0 0 32 39" fill="none" xmlns="http://www.w3.org/2000/svg">
<path fill-rule="evenodd" clip-rule="evenodd" d="M22.2878 7.18179V7.18186H26.594C26.594 7.18187 26.594 7.18187 26.594 7.18188C26.594 9.89978 28.7973 12.1031 31.5152 12.1031V16.4091H31.515C28.1177 16.4091 25.3635 19.1632 25.3635 22.5606C25.3635 25.958 28.1177 28.7121 31.515 28.7121H31.5152V37.9394H8.87322C4.39108 37.9394 0.757584 34.3059 0.757584 29.8238V7.18186H9.98474V7.18179C9.98474 3.7844 12.7389 1.03027 16.1363 1.03027C19.5336 1.03027 22.2878 3.7844 22.2878 7.18179Z" fill="#D8EBED"/>
<path d="M22.2878 7.18186H22.1255V7.34417H22.2878V7.18186ZM26.594 7.18186H26.7563V7.01955H26.594V7.18186ZM31.5152 12.1031H31.6775V11.9408H31.5152V12.1031ZM31.5152 16.4091V16.5714H31.6775V16.4091H31.5152ZM31.5152 28.7121H31.6775V28.5498H31.5152V28.7121ZM31.5152 37.9394V38.1017H31.6775V37.9394H31.5152ZM0.757584 7.18186V7.01955H0.595271V7.18186H0.757584ZM9.98474 7.18186V7.34417H10.1471V7.18186H9.98474ZM22.4501 7.18186V7.18179H22.1255V7.18186H22.4501ZM26.594 7.01955H22.2878V7.34417H26.594V7.01955ZM26.7563 7.18188C26.7563 7.18188 26.7563 7.18188 26.7563 7.18188C26.7563 7.18188 26.7563 7.18188 26.7563 7.18188C26.7563 7.18188 26.7563 7.18188 26.7563 7.18188C26.7563 7.18188 26.7563 7.18188 26.7563 7.18188C26.7563 7.18188 26.7563 7.18188 26.7563 7.18188C26.7563 7.18188 26.7563 7.18188 26.7563 7.18188C26.7563 7.18188 26.7563 7.18188 26.7563 7.18187V7.18187C26.7563 7.18187 26.7563 7.18187 26.7563 7.18187V7.18187C26.7563 7.18187 26.7563 7.18187 26.7563 7.18187V7.18187C26.7563 7.18187 26.7563 7.18187 26.7563 7.18187V7.18187C26.7563 7.18187 26.7563 7.18187 26.7563 7.18187V7.18187C26.7563 7.18187 26.7563 7.18187 26.7563 7.18187V7.18187C26.7563 7.18187 26.7563 7.18187 26.7563 7.18187V7.18187C26.7563 7.18187 26.7563 7.18187 26.7563 7.18187V7.18187C26.7563 7.18187 26.7563 7.18187 26.7563 7.18187V7.18187C26.7563 7.18187 26.7563 7.18187 26.7563 7.18187V7.18187C26.7563 7.18187 26.7563 7.18187 26.7563 7.18187V7.18186C26.7563 7.18186 26.7563 7.18186 26.7563 7.18186C26.7563 7.18186 26.7563 7.18186 26.7563 7.18186C26.7563 7.18186 26.7563 7.18186 26.7563 7.18186C26.7563 7.18186 26.7563 7.18186 26.7563 7.18186C26.7563 7.18186 26.7563 7.18186 26.7563 7.18186H26.4316C26.4316 7.18186 26.4316 7.18186 26.4316 7.18186C26.4316 7.18186 26.4316 7.18186 26.4316 7.18186C26.4316 7.18186 26.4316 7.18186 26.4316 7.18186C26.4316 7.18186 26.4316 7.18186 26.4316 7.18186C26.4316 7.18186 26.4316 7.18186 26.4316 7.18186V7.18187C26.4316 7.18187 26.4316 7.18187 26.4316 7.18187V7.18187C26.4316 7.18187 26.4316 7.18187 26.4316 7.18187V7.18187C26.4316 7.18187 26.4316 7.18187 26.4316 7.18187V7.18187C26.4316 7.18187 26.4316 7.18187 26.4316 7.18187V7.18187C26.4316 7.18187 26.4316 7.18187 26.4316 7.18187V7.18187C26.4316 7.18187 26.4316 7.18187 26.4316 7.18187V7.18187C26.4316 7.18187 26.4316 7.18187 26.4316 7.18187V7.18187C26.4316 7.18187 26.4316 7.18187 26.4316 7.18187V7.18187C26.4316 7.18187 26.4316 7.18187 26.4316 7.18187V7.18187C26.4316 7.18187 26.4316 7.18187 26.4316 7.18187V7.18187C26.4316 7.18188 26.4316 7.18188 26.4316 7.18188C26.4316 7.18188 26.4316 7.18188 26.4316 7.18188C26.4316 7.18188 26.4316 7.18188 26.4316 7.18188C26.4316 7.18188 26.4316 7.18188 26.4316 7.18188C26.4316 7.18188 26.4316 7.18188 26.4316 7.18188C26.4316 7.18188 26.4316 7.18188 26.4316 7.18188C26.4316 7.18188 26.4316 7.18188 26.4316 7.18188H26.7563ZM31.5152 11.9408C28.8869 11.9408 26.7563 9.81014 26.7563 7.18188H26.4316C26.4316 9.98942 28.7076 12.2654 31.5152 12.2654V11.9408ZM31.6775 16.4091V12.1031H31.3528V16.4091H31.6775ZM31.515 16.5714H31.5152V16.2468H31.515V16.5714ZM25.5258 22.5606C25.5258 19.2529 28.2073 16.5714 31.515 16.5714V16.2468C28.028 16.2468 25.2012 19.0736 25.2012 22.5606H25.5258ZM31.515 28.5498C28.2073 28.5498 25.5258 25.8684 25.5258 22.5606H25.2012C25.2012 26.0477 28.028 28.8745 31.515 28.8745V28.5498ZM31.5152 28.5498H31.515V28.8745H31.5152V28.5498ZM31.6775 37.9394V28.7121H31.3528V37.9394H31.6775ZM8.87322 38.1017H31.5152V37.7771H8.87322V38.1017ZM0.595271 29.8238C0.595271 34.3956 4.30143 38.1017 8.87322 38.1017V37.7771C4.48072 37.7771 0.919896 34.2163 0.919896 29.8238H0.595271ZM0.595271 7.18186V29.8238H0.919896V7.18186H0.595271ZM9.98474 7.01955H0.757584V7.34417H9.98474V7.01955ZM9.82243 7.18179V7.18186H10.1471V7.18179H9.82243ZM16.1363 0.867961C12.6492 0.867961 9.82243 3.69476 9.82243 7.18179H10.1471C10.1471 3.87404 12.8285 1.19259 16.1363 1.19259V0.867961ZM22.4501 7.18179C22.4501 3.69476 19.6233 0.867961 16.1363 0.867961V1.19259C19.444 1.19259 22.1255 3.87404 22.1255 7.18179H22.4501Z" fill="black"/>
</svg>
