<svg width="39" height="32" viewBox="0 0 39 32" fill="none" xmlns="http://www.w3.org/2000/svg">
<path fill-rule="evenodd" clip-rule="evenodd" d="M7.1818 5.95163C9.89971 5.95163 12.103 3.74833 12.103 1.03042C12.103 1.03037 12.103 1.03032 12.103 1.03027H16.4092V1.03061C16.4092 4.428 19.1633 7.18213 22.5607 7.18213C25.9581 7.18213 28.7122 4.428 28.7122 1.03061V1.03027H37.9394V23.6722C37.9394 28.1544 34.3059 31.7878 29.8237 31.7878H7.18178V22.5607C3.78441 22.5607 1.0303 19.8065 1.0303 16.4092C1.0303 13.0118 3.78441 10.2577 7.18178 10.2577V5.95163C7.18179 5.95163 7.18179 5.95163 7.1818 5.95163Z" fill="#D8EBED"/>
<path d="M12.103 1.03027V0.867961H11.9407V1.03027H12.103ZM16.4092 1.03027H16.5715V0.867961H16.4092V1.03027ZM28.7122 1.03027V0.867961H28.5499V1.03027H28.7122ZM37.9394 1.03027H38.1017V0.867961H37.9394V1.03027ZM7.18178 31.7878H7.01947V31.9502H7.18178V31.7878ZM7.18178 22.5607H7.34409V22.3984L7.18178 22.3984L7.18178 22.5607ZM7.18178 10.2577L7.18178 10.42L7.34409 10.42V10.2577H7.18178ZM7.18178 5.95163V5.78932H7.01947V5.95163H7.18178ZM11.9407 1.03042C11.9407 3.65869 9.81007 5.78932 7.1818 5.78932V6.11394C9.98935 6.11394 12.2653 3.83797 12.2653 1.03042H11.9407ZM11.9407 1.03027C11.9407 1.03027 11.9407 1.03027 11.9407 1.03027C11.9407 1.03027 11.9407 1.03027 11.9407 1.03027C11.9407 1.03027 11.9407 1.03027 11.9407 1.03027C11.9407 1.03027 11.9407 1.03027 11.9407 1.03027C11.9407 1.03027 11.9407 1.03027 11.9407 1.03027C11.9407 1.03027 11.9407 1.03028 11.9407 1.03028C11.9407 1.03028 11.9407 1.03028 11.9407 1.03028C11.9407 1.03028 11.9407 1.03028 11.9407 1.03028C11.9407 1.03028 11.9407 1.03028 11.9407 1.03028C11.9407 1.03028 11.9407 1.03028 11.9407 1.03028C11.9407 1.03028 11.9407 1.03028 11.9407 1.03028C11.9407 1.03028 11.9407 1.03028 11.9407 1.03028C11.9407 1.03028 11.9407 1.03028 11.9407 1.03028C11.9407 1.03028 11.9407 1.03028 11.9407 1.03028C11.9407 1.03028 11.9407 1.03028 11.9407 1.03028C11.9407 1.03028 11.9407 1.03028 11.9407 1.03028C11.9407 1.03028 11.9407 1.03028 11.9407 1.03028C11.9407 1.03028 11.9407 1.03028 11.9407 1.03028C11.9407 1.03028 11.9407 1.03028 11.9407 1.03028C11.9407 1.03028 11.9407 1.03028 11.9407 1.03028C11.9407 1.03028 11.9407 1.03028 11.9407 1.03028C11.9407 1.03028 11.9407 1.03028 11.9407 1.03028C11.9407 1.03028 11.9407 1.03028 11.9407 1.03028C11.9407 1.03028 11.9407 1.03028 11.9407 1.03028C11.9407 1.03028 11.9407 1.03028 11.9407 1.03028C11.9407 1.03028 11.9407 1.03028 11.9407 1.03028C11.9407 1.03028 11.9407 1.03028 11.9407 1.03028C11.9407 1.03028 11.9407 1.03028 11.9407 1.03028C11.9407 1.03028 11.9407 1.03028 11.9407 1.03028C11.9407 1.03028 11.9407 1.03028 11.9407 1.03028C11.9407 1.03028 11.9407 1.03028 11.9407 1.03028C11.9407 1.03028 11.9407 1.03028 11.9407 1.03028C11.9407 1.03028 11.9407 1.03028 11.9407 1.03028C11.9407 1.03028 11.9407 1.03028 11.9407 1.03028C11.9407 1.03028 11.9407 1.03028 11.9407 1.03028C11.9407 1.03028 11.9407 1.03028 11.9407 1.03028C11.9407 1.03028 11.9407 1.03028 11.9407 1.03028C11.9407 1.03028 11.9407 1.03028 11.9407 1.03028C11.9407 1.03028 11.9407 1.03028 11.9407 1.03028C11.9407 1.03028 11.9407 1.03028 11.9407 1.03028C11.9407 1.03028 11.9407 1.03029 11.9407 1.03029C11.9407 1.03029 11.9407 1.03029 11.9407 1.03029C11.9407 1.03029 11.9407 1.03029 11.9407 1.03029C11.9407 1.03029 11.9407 1.03029 11.9407 1.03029C11.9407 1.03029 11.9407 1.03029 11.9407 1.03029C11.9407 1.03029 11.9407 1.03029 11.9407 1.03029C11.9407 1.03029 11.9407 1.03029 11.9407 1.03029C11.9407 1.03029 11.9407 1.03029 11.9407 1.03029C11.9407 1.03029 11.9407 1.03029 11.9407 1.03029C11.9407 1.03029 11.9407 1.03029 11.9407 1.03029C11.9407 1.03029 11.9407 1.03029 11.9407 1.03029C11.9407 1.03029 11.9407 1.03029 11.9407 1.03029C11.9407 1.03029 11.9407 1.03029 11.9407 1.03029C11.9407 1.03029 11.9407 1.03029 11.9407 1.03029C11.9407 1.03029 11.9407 1.03029 11.9407 1.03029C11.9407 1.03029 11.9407 1.03029 11.9407 1.03029C11.9407 1.03029 11.9407 1.03029 11.9407 1.03029C11.9407 1.03029 11.9407 1.03029 11.9407 1.03029C11.9407 1.03029 11.9407 1.03029 11.9407 1.03029C11.9407 1.03029 11.9407 1.03029 11.9407 1.03029C11.9407 1.03029 11.9407 1.03029 11.9407 1.03029C11.9407 1.03029 11.9407 1.03029 11.9407 1.03029C11.9407 1.03029 11.9407 1.03029 11.9407 1.03029C11.9407 1.03029 11.9407 1.03029 11.9407 1.03029C11.9407 1.03029 11.9407 1.03029 11.9407 1.03029C11.9407 1.03029 11.9407 1.03029 11.9407 1.03029C11.9407 1.03029 11.9407 1.03029 11.9407 1.03029C11.9407 1.03029 11.9407 1.03029 11.9407 1.03029C11.9407 1.03029 11.9407 1.03029 11.9407 1.03029C11.9407 1.03029 11.9407 1.03029 11.9407 1.03029C11.9407 1.03029 11.9407 1.03029 11.9407 1.03029C11.9407 1.03029 11.9407 1.03029 11.9407 1.03029C11.9407 1.03029 11.9407 1.03029 11.9407 1.03029C11.9407 1.03029 11.9407 1.03029 11.9407 1.03029C11.9407 1.03029 11.9407 1.03029 11.9407 1.03029C11.9407 1.03029 11.9407 1.0303 11.9407 1.0303C11.9407 1.0303 11.9407 1.0303 11.9407 1.0303C11.9407 1.0303 11.9407 1.0303 11.9407 1.0303C11.9407 1.0303 11.9407 1.0303 11.9407 1.0303C11.9407 1.0303 11.9407 1.0303 11.9407 1.0303C11.9407 1.0303 11.9407 1.0303 11.9407 1.0303C11.9407 1.0303 11.9407 1.0303 11.9407 1.0303C11.9407 1.0303 11.9407 1.0303 11.9407 1.0303C11.9407 1.0303 11.9407 1.0303 11.9407 1.0303C11.9407 1.0303 11.9407 1.0303 11.9407 1.0303C11.9407 1.0303 11.9407 1.0303 11.9407 1.0303C11.9407 1.0303 11.9407 1.0303 11.9407 1.0303C11.9407 1.0303 11.9407 1.0303 11.9407 1.0303C11.9407 1.0303 11.9407 1.0303 11.9407 1.0303C11.9407 1.0303 11.9407 1.0303 11.9407 1.0303C11.9407 1.0303 11.9407 1.0303 11.9407 1.0303C11.9407 1.0303 11.9407 1.0303 11.9407 1.0303C11.9407 1.0303 11.9407 1.0303 11.9407 1.0303C11.9407 1.0303 11.9407 1.0303 11.9407 1.0303C11.9407 1.0303 11.9407 1.0303 11.9407 1.0303C11.9407 1.0303 11.9407 1.0303 11.9407 1.0303C11.9407 1.0303 11.9407 1.0303 11.9407 1.0303C11.9407 1.0303 11.9407 1.0303 11.9407 1.0303C11.9407 1.0303 11.9407 1.0303 11.9407 1.0303C11.9407 1.0303 11.9407 1.0303 11.9407 1.0303C11.9407 1.0303 11.9407 1.0303 11.9407 1.0303C11.9407 1.0303 11.9407 1.0303 11.9407 1.0303C11.9407 1.0303 11.9407 1.0303 11.9407 1.0303C11.9407 1.0303 11.9407 1.0303 11.9407 1.0303C11.9407 1.0303 11.9407 1.0303 11.9407 1.0303C11.9407 1.0303 11.9407 1.0303 11.9407 1.0303C11.9407 1.0303 11.9407 1.0303 11.9407 1.0303C11.9407 1.0303 11.9407 1.0303 11.9407 1.0303C11.9407 1.0303 11.9407 1.0303 11.9407 1.0303C11.9407 1.0303 11.9407 1.0303 11.9407 1.0303C11.9407 1.0303 11.9407 1.0303 11.9407 1.03031C11.9407 1.03031 11.9407 1.03031 11.9407 1.03031C11.9407 1.03031 11.9407 1.03031 11.9407 1.03031C11.9407 1.03031 11.9407 1.03031 11.9407 1.03031C11.9407 1.03031 11.9407 1.03031 11.9407 1.03031C11.9407 1.03031 11.9407 1.03031 11.9407 1.03031C11.9407 1.03031 11.9407 1.03031 11.9407 1.03031C11.9407 1.03031 11.9407 1.03031 11.9407 1.03031C11.9407 1.03031 11.9407 1.03031 11.9407 1.03031C11.9407 1.03031 11.9407 1.03031 11.9407 1.03031C11.9407 1.03031 11.9407 1.03031 11.9407 1.03031C11.9407 1.03031 11.9407 1.03031 11.9407 1.03031C11.9407 1.03031 11.9407 1.03031 11.9407 1.03031C11.9407 1.03031 11.9407 1.03031 11.9407 1.03031C11.9407 1.03031 11.9407 1.03031 11.9407 1.03031C11.9407 1.03031 11.9407 1.03031 11.9407 1.03031C11.9407 1.03031 11.9407 1.03031 11.9407 1.03031C11.9407 1.03031 11.9407 1.03031 11.9407 1.03031C11.9407 1.03031 11.9407 1.03031 11.9407 1.03031C11.9407 1.03031 11.9407 1.03031 11.9407 1.03031C11.9407 1.03031 11.9407 1.03031 11.9407 1.03031C11.9407 1.03031 11.9407 1.03031 11.9407 1.03031C11.9407 1.03031 11.9407 1.03031 11.9407 1.03031C11.9407 1.03031 11.9407 1.03031 11.9407 1.03031C11.9407 1.03031 11.9407 1.03031 11.9407 1.03031C11.9407 1.03031 11.9407 1.03031 11.9407 1.03031C11.9407 1.03031 11.9407 1.03031 11.9407 1.03031C11.9407 1.03031 11.9407 1.03031 11.9407 1.03031C11.9407 1.03031 11.9407 1.03031 11.9407 1.03031C11.9407 1.03031 11.9407 1.03031 11.9407 1.03031C11.9407 1.03031 11.9407 1.03031 11.9407 1.03031C11.9407 1.03031 11.9407 1.03031 11.9407 1.03031C11.9407 1.03031 11.9407 1.03031 11.9407 1.03031C11.9407 1.03031 11.9407 1.03031 11.9407 1.03031C11.9407 1.03031 11.9407 1.03031 11.9407 1.03031C11.9407 1.03031 11.9407 1.03031 11.9407 1.03032C11.9407 1.03032 11.9407 1.03032 11.9407 1.03032C11.9407 1.03032 11.9407 1.03032 11.9407 1.03032C11.9407 1.03032 11.9407 1.03032 11.9407 1.03032C11.9407 1.03032 11.9407 1.03032 11.9407 1.03032C11.9407 1.03032 11.9407 1.03032 11.9407 1.03032C11.9407 1.03032 11.9407 1.03032 11.9407 1.03032C11.9407 1.03032 11.9407 1.03032 11.9407 1.03032C11.9407 1.03032 11.9407 1.03032 11.9407 1.03032C11.9407 1.03032 11.9407 1.03032 11.9407 1.03032C11.9407 1.03032 11.9407 1.03032 11.9407 1.03032C11.9407 1.03032 11.9407 1.03032 11.9407 1.03032C11.9407 1.03032 11.9407 1.03032 11.9407 1.03032C11.9407 1.03032 11.9407 1.03032 11.9407 1.03032C11.9407 1.03032 11.9407 1.03032 11.9407 1.03032C11.9407 1.03032 11.9407 1.03032 11.9407 1.03032C11.9407 1.03032 11.9407 1.03032 11.9407 1.03032C11.9407 1.03032 11.9407 1.03032 11.9407 1.03032C11.9407 1.03032 11.9407 1.03032 11.9407 1.03032C11.9407 1.03032 11.9407 1.03032 11.9407 1.03032C11.9407 1.03032 11.9407 1.03032 11.9407 1.03032C11.9407 1.03032 11.9407 1.03032 11.9407 1.03032C11.9407 1.03032 11.9407 1.03032 11.9407 1.03032C11.9407 1.03032 11.9407 1.03032 11.9407 1.03032C11.9407 1.03032 11.9407 1.03032 11.9407 1.03032C11.9407 1.03032 11.9407 1.03032 11.9407 1.03032C11.9407 1.03032 11.9407 1.03032 11.9407 1.03032C11.9407 1.03032 11.9407 1.03032 11.9407 1.03032C11.9407 1.03032 11.9407 1.03032 11.9407 1.03032C11.9407 1.03032 11.9407 1.03032 11.9407 1.03032C11.9407 1.03032 11.9407 1.03032 11.9407 1.03032C11.9407 1.03032 11.9407 1.03032 11.9407 1.03032C11.9407 1.03032 11.9407 1.03032 11.9407 1.03032C11.9407 1.03032 11.9407 1.03032 11.9407 1.03032C11.9407 1.03032 11.9407 1.03032 11.9407 1.03032C11.9407 1.03032 11.9407 1.03032 11.9407 1.03033C11.9407 1.03033 11.9407 1.03033 11.9407 1.03033C11.9407 1.03033 11.9407 1.03033 11.9407 1.03033C11.9407 1.03033 11.9407 1.03033 11.9407 1.03033C11.9407 1.03033 11.9407 1.03033 11.9407 1.03033C11.9407 1.03033 11.9407 1.03033 11.9407 1.03033C11.9407 1.03033 11.9407 1.03033 11.9407 1.03033C11.9407 1.03033 11.9407 1.03033 11.9407 1.03033C11.9407 1.03033 11.9407 1.03033 11.9407 1.03033C11.9407 1.03033 11.9407 1.03033 11.9407 1.03033C11.9407 1.03033 11.9407 1.03033 11.9407 1.03033C11.9407 1.03033 11.9407 1.03033 11.9407 1.03033C11.9407 1.03033 11.9407 1.03033 11.9407 1.03033C11.9407 1.03033 11.9407 1.03033 11.9407 1.03033C11.9407 1.03033 11.9407 1.03033 11.9407 1.03033C11.9407 1.03033 11.9407 1.03033 11.9407 1.03033C11.9407 1.03033 11.9407 1.03033 11.9407 1.03033C11.9407 1.03033 11.9407 1.03033 11.9407 1.03033C11.9407 1.03033 11.9407 1.03033 11.9407 1.03033C11.9407 1.03033 11.9407 1.03033 11.9407 1.03033C11.9407 1.03033 11.9407 1.03033 11.9407 1.03033C11.9407 1.03033 11.9407 1.03033 11.9407 1.03033C11.9407 1.03033 11.9407 1.03033 11.9407 1.03033C11.9407 1.03033 11.9407 1.03033 11.9407 1.03033C11.9407 1.03033 11.9407 1.03033 11.9407 1.03033C11.9407 1.03033 11.9407 1.03033 11.9407 1.03033C11.9407 1.03033 11.9407 1.03033 11.9407 1.03033C11.9407 1.03033 11.9407 1.03033 11.9407 1.03033C11.9407 1.03033 11.9407 1.03033 11.9407 1.03033C11.9407 1.03033 11.9407 1.03033 11.9407 1.03033C11.9407 1.03033 11.9407 1.03033 11.9407 1.03033C11.9407 1.03033 11.9407 1.03033 11.9407 1.03033C11.9407 1.03033 11.9407 1.03033 11.9407 1.03033C11.9407 1.03033 11.9407 1.03033 11.9407 1.03033C11.9407 1.03033 11.9407 1.03033 11.9407 1.03033C11.9407 1.03033 11.9407 1.03033 11.9407 1.03033C11.9407 1.03034 11.9407 1.03034 11.9407 1.03034C11.9407 1.03034 11.9407 1.03034 11.9407 1.03034C11.9407 1.03034 11.9407 1.03034 11.9407 1.03034C11.9407 1.03034 11.9407 1.03034 11.9407 1.03034C11.9407 1.03034 11.9407 1.03034 11.9407 1.03034C11.9407 1.03034 11.9407 1.03034 11.9407 1.03034C11.9407 1.03034 11.9407 1.03034 11.9407 1.03034C11.9407 1.03034 11.9407 1.03034 11.9407 1.03034C11.9407 1.03034 11.9407 1.03034 11.9407 1.03034C11.9407 1.03034 11.9407 1.03034 11.9407 1.03034C11.9407 1.03034 11.9407 1.03034 11.9407 1.03034C11.9407 1.03034 11.9407 1.03034 11.9407 1.03034C11.9407 1.03034 11.9407 1.03034 11.9407 1.03034C11.9407 1.03034 11.9407 1.03034 11.9407 1.03034C11.9407 1.03034 11.9407 1.03034 11.9407 1.03034C11.9407 1.03034 11.9407 1.03034 11.9407 1.03034C11.9407 1.03034 11.9407 1.03034 11.9407 1.03034C11.9407 1.03034 11.9407 1.03034 11.9407 1.03034C11.9407 1.03034 11.9407 1.03034 11.9407 1.03034C11.9407 1.03034 11.9407 1.03034 11.9407 1.03034C11.9407 1.03034 11.9407 1.03034 11.9407 1.03034C11.9407 1.03034 11.9407 1.03034 11.9407 1.03034C11.9407 1.03034 11.9407 1.03034 11.9407 1.03034C11.9407 1.03034 11.9407 1.03034 11.9407 1.03034C11.9407 1.03034 11.9407 1.03034 11.9407 1.03034C11.9407 1.03034 11.9407 1.03034 11.9407 1.03034C11.9407 1.03034 11.9407 1.03034 11.9407 1.03034C11.9407 1.03034 11.9407 1.03034 11.9407 1.03034C11.9407 1.03034 11.9407 1.03034 11.9407 1.03034C11.9407 1.03034 11.9407 1.03034 11.9407 1.03034C11.9407 1.03034 11.9407 1.03034 11.9407 1.03034C11.9407 1.03034 11.9407 1.03034 11.9407 1.03034C11.9407 1.03034 11.9407 1.03034 11.9407 1.03034C11.9407 1.03034 11.9407 1.03034 11.9407 1.03034C11.9407 1.03034 11.9407 1.03034 11.9407 1.03034C11.9407 1.03035 11.9407 1.03035 11.9407 1.03035C11.9407 1.03035 11.9407 1.03035 11.9407 1.03035C11.9407 1.03035 11.9407 1.03035 11.9407 1.03035C11.9407 1.03035 11.9407 1.03035 11.9407 1.03035C11.9407 1.03035 11.9407 1.03035 11.9407 1.03035C11.9407 1.03035 11.9407 1.03035 11.9407 1.03035C11.9407 1.03035 11.9407 1.03035 11.9407 1.03035C11.9407 1.03035 11.9407 1.03035 11.9407 1.03035C11.9407 1.03035 11.9407 1.03035 11.9407 1.03035C11.9407 1.03035 11.9407 1.03035 11.9407 1.03035C11.9407 1.03035 11.9407 1.03035 11.9407 1.03035C11.9407 1.03035 11.9407 1.03035 11.9407 1.03035C11.9407 1.03035 11.9407 1.03035 11.9407 1.03035C11.9407 1.03035 11.9407 1.03035 11.9407 1.03035C11.9407 1.03035 11.9407 1.03035 11.9407 1.03035C11.9407 1.03035 11.9407 1.03035 11.9407 1.03035C11.9407 1.03035 11.9407 1.03035 11.9407 1.03035C11.9407 1.03035 11.9407 1.03035 11.9407 1.03035C11.9407 1.03035 11.9407 1.03035 11.9407 1.03035C11.9407 1.03035 11.9407 1.03035 11.9407 1.03035C11.9407 1.03035 11.9407 1.03035 11.9407 1.03035C11.9407 1.03035 11.9407 1.03035 11.9407 1.03035C11.9407 1.03035 11.9407 1.03035 11.9407 1.03035C11.9407 1.03035 11.9407 1.03035 11.9407 1.03035C11.9407 1.03035 11.9407 1.03035 11.9407 1.03035C11.9407 1.03035 11.9407 1.03035 11.9407 1.03035C11.9407 1.03035 11.9407 1.03035 11.9407 1.03035C11.9407 1.03035 11.9407 1.03035 11.9407 1.03035C11.9407 1.03035 11.9407 1.03035 11.9407 1.03035C11.9407 1.03035 11.9407 1.03035 11.9407 1.03035C11.9407 1.03035 11.9407 1.03035 11.9407 1.03035C11.9407 1.03035 11.9407 1.03035 11.9407 1.03035C11.9407 1.03035 11.9407 1.03035 11.9407 1.03035C11.9407 1.03035 11.9407 1.03035 11.9407 1.03035C11.9407 1.03035 11.9407 1.03035 11.9407 1.03035C11.9407 1.03036 11.9407 1.03036 11.9407 1.03036C11.9407 1.03036 11.9407 1.03036 11.9407 1.03036C11.9407 1.03036 11.9407 1.03036 11.9407 1.03036C11.9407 1.03036 11.9407 1.03036 11.9407 1.03036C11.9407 1.03036 11.9407 1.03036 11.9407 1.03036C11.9407 1.03036 11.9407 1.03036 11.9407 1.03036C11.9407 1.03036 11.9407 1.03036 11.9407 1.03036C11.9407 1.03036 11.9407 1.03036 11.9407 1.03036C11.9407 1.03036 11.9407 1.03036 11.9407 1.03036C11.9407 1.03036 11.9407 1.03036 11.9407 1.03036C11.9407 1.03036 11.9407 1.03036 11.9407 1.03036C11.9407 1.03036 11.9407 1.03036 11.9407 1.03036C11.9407 1.03036 11.9407 1.03036 11.9407 1.03036C11.9407 1.03036 11.9407 1.03036 11.9407 1.03036C11.9407 1.03036 11.9407 1.03036 11.9407 1.03036C11.9407 1.03036 11.9407 1.03036 11.9407 1.03036C11.9407 1.03036 11.9407 1.03036 11.9407 1.03036C11.9407 1.03036 11.9407 1.03036 11.9407 1.03036C11.9407 1.03036 11.9407 1.03036 11.9407 1.03036C11.9407 1.03036 11.9407 1.03036 11.9407 1.03036C11.9407 1.03036 11.9407 1.03036 11.9407 1.03036C11.9407 1.03036 11.9407 1.03036 11.9407 1.03036C11.9407 1.03036 11.9407 1.03036 11.9407 1.03036C11.9407 1.03036 11.9407 1.03036 11.9407 1.03036C11.9407 1.03036 11.9407 1.03036 11.9407 1.03036C11.9407 1.03036 11.9407 1.03036 11.9407 1.03036C11.9407 1.03036 11.9407 1.03036 11.9407 1.03036C11.9407 1.03036 11.9407 1.03036 11.9407 1.03036C11.9407 1.03036 11.9407 1.03036 11.9407 1.03036C11.9407 1.03036 11.9407 1.03036 11.9407 1.03036C11.9407 1.03036 11.9407 1.03036 11.9407 1.03036C11.9407 1.03036 11.9407 1.03036 11.9407 1.03036C11.9407 1.03036 11.9407 1.03036 11.9407 1.03036C11.9407 1.03036 11.9407 1.03036 11.9407 1.03036C11.9407 1.03036 11.9407 1.03036 11.9407 1.03036C11.9407 1.03037 11.9407 1.03037 11.9407 1.03037C11.9407 1.03037 11.9407 1.03037 11.9407 1.03037C11.9407 1.03037 11.9407 1.03037 11.9407 1.03037C11.9407 1.03037 11.9407 1.03037 11.9407 1.03037C11.9407 1.03037 11.9407 1.03037 11.9407 1.03037C11.9407 1.03037 11.9407 1.03037 11.9407 1.03037C11.9407 1.03037 11.9407 1.03037 11.9407 1.03037C11.9407 1.03037 11.9407 1.03037 11.9407 1.03037C11.9407 1.03037 11.9407 1.03037 11.9407 1.03037C11.9407 1.03037 11.9407 1.03037 11.9407 1.03037C11.9407 1.03037 11.9407 1.03037 11.9407 1.03037C11.9407 1.03037 11.9407 1.03037 11.9407 1.03037C11.9407 1.03037 11.9407 1.03037 11.9407 1.03037C11.9407 1.03037 11.9407 1.03037 11.9407 1.03037C11.9407 1.03037 11.9407 1.03037 11.9407 1.03037C11.9407 1.03037 11.9407 1.03037 11.9407 1.03037C11.9407 1.03037 11.9407 1.03037 11.9407 1.03037C11.9407 1.03037 11.9407 1.03037 11.9407 1.03037C11.9407 1.03037 11.9407 1.03037 11.9407 1.03037C11.9407 1.03037 11.9407 1.03037 11.9407 1.03037C11.9407 1.03037 11.9407 1.03037 11.9407 1.03037C11.9407 1.03037 11.9407 1.03037 11.9407 1.03037C11.9407 1.03037 11.9407 1.03037 11.9407 1.03037C11.9407 1.03037 11.9407 1.03037 11.9407 1.03037C11.9407 1.03037 11.9407 1.03037 11.9407 1.03037C11.9407 1.03037 11.9407 1.03037 11.9407 1.03037C11.9407 1.03037 11.9407 1.03037 11.9407 1.03037C11.9407 1.03037 11.9407 1.03037 11.9407 1.03037C11.9407 1.03037 11.9407 1.03037 11.9407 1.03037C11.9407 1.03037 11.9407 1.03037 11.9407 1.03037C11.9407 1.03037 11.9407 1.03037 11.9407 1.03037C11.9407 1.03037 11.9407 1.03037 11.9407 1.03037C11.9407 1.03037 11.9407 1.03037 11.9407 1.03037C11.9407 1.03037 11.9407 1.03037 11.9407 1.03037C11.9407 1.03037 11.9407 1.03037 11.9407 1.03037C11.9407 1.03037 11.9407 1.03038 11.9407 1.03038C11.9407 1.03038 11.9407 1.03038 11.9407 1.03038C11.9407 1.03038 11.9407 1.03038 11.9407 1.03038C11.9407 1.03038 11.9407 1.03038 11.9407 1.03038C11.9407 1.03038 11.9407 1.03038 11.9407 1.03038C11.9407 1.03038 11.9407 1.03038 11.9407 1.03038C11.9407 1.03038 11.9407 1.03038 11.9407 1.03038C11.9407 1.03038 11.9407 1.03038 11.9407 1.03038C11.9407 1.03038 11.9407 1.03038 11.9407 1.03038C11.9407 1.03038 11.9407 1.03038 11.9407 1.03038C11.9407 1.03038 11.9407 1.03038 11.9407 1.03038C11.9407 1.03038 11.9407 1.03038 11.9407 1.03038C11.9407 1.03038 11.9407 1.03038 11.9407 1.03038C11.9407 1.03038 11.9407 1.03038 11.9407 1.03038C11.9407 1.03038 11.9407 1.03038 11.9407 1.03038C11.9407 1.03038 11.9407 1.03038 11.9407 1.03038C11.9407 1.03038 11.9407 1.03038 11.9407 1.03038C11.9407 1.03038 11.9407 1.03038 11.9407 1.03038C11.9407 1.03038 11.9407 1.03038 11.9407 1.03038C11.9407 1.03038 11.9407 1.03038 11.9407 1.03038C11.9407 1.03038 11.9407 1.03038 11.9407 1.03038C11.9407 1.03038 11.9407 1.03038 11.9407 1.03038C11.9407 1.03038 11.9407 1.03038 11.9407 1.03038C11.9407 1.03038 11.9407 1.03038 11.9407 1.03038C11.9407 1.03038 11.9407 1.03038 11.9407 1.03038C11.9407 1.03038 11.9407 1.03038 11.9407 1.03038C11.9407 1.03038 11.9407 1.03038 11.9407 1.03038C11.9407 1.03038 11.9407 1.03038 11.9407 1.03038C11.9407 1.03038 11.9407 1.03038 11.9407 1.03038C11.9407 1.03038 11.9407 1.03038 11.9407 1.03038C11.9407 1.03038 11.9407 1.03038 11.9407 1.03038C11.9407 1.03038 11.9407 1.03038 11.9407 1.03038C11.9407 1.03038 11.9407 1.03038 11.9407 1.03038C11.9407 1.03038 11.9407 1.03038 11.9407 1.03038C11.9407 1.03038 11.9407 1.03038 11.9407 1.03038C11.9407 1.03038 11.9407 1.03039 11.9407 1.03039C11.9407 1.03039 11.9407 1.03039 11.9407 1.03039C11.9407 1.03039 11.9407 1.03039 11.9407 1.03039C11.9407 1.03039 11.9407 1.03039 11.9407 1.03039C11.9407 1.03039 11.9407 1.03039 11.9407 1.03039C11.9407 1.03039 11.9407 1.03039 11.9407 1.03039C11.9407 1.03039 11.9407 1.03039 11.9407 1.03039C11.9407 1.03039 11.9407 1.03039 11.9407 1.03039C11.9407 1.03039 11.9407 1.03039 11.9407 1.03039C11.9407 1.03039 11.9407 1.03039 11.9407 1.03039C11.9407 1.03039 11.9407 1.03039 11.9407 1.03039C11.9407 1.03039 11.9407 1.03039 11.9407 1.03039C11.9407 1.03039 11.9407 1.03039 11.9407 1.03039C11.9407 1.03039 11.9407 1.03039 11.9407 1.03039C11.9407 1.03039 11.9407 1.03039 11.9407 1.03039C11.9407 1.03039 11.9407 1.03039 11.9407 1.03039C11.9407 1.03039 11.9407 1.03039 11.9407 1.03039C11.9407 1.03039 11.9407 1.03039 11.9407 1.03039C11.9407 1.03039 11.9407 1.03039 11.9407 1.03039C11.9407 1.03039 11.9407 1.03039 11.9407 1.03039C11.9407 1.03039 11.9407 1.03039 11.9407 1.03039C11.9407 1.03039 11.9407 1.03039 11.9407 1.03039C11.9407 1.03039 11.9407 1.03039 11.9407 1.03039C11.9407 1.03039 11.9407 1.03039 11.9407 1.03039C11.9407 1.03039 11.9407 1.03039 11.9407 1.03039C11.9407 1.03039 11.9407 1.03039 11.9407 1.03039C11.9407 1.03039 11.9407 1.03039 11.9407 1.03039C11.9407 1.03039 11.9407 1.03039 11.9407 1.03039C11.9407 1.03039 11.9407 1.03039 11.9407 1.03039C11.9407 1.03039 11.9407 1.03039 11.9407 1.03039C11.9407 1.03039 11.9407 1.03039 11.9407 1.03039C11.9407 1.03039 11.9407 1.03039 11.9407 1.03039C11.9407 1.03039 11.9407 1.03039 11.9407 1.03039C11.9407 1.03039 11.9407 1.03039 11.9407 1.03039C11.9407 1.03039 11.9407 1.03039 11.9407 1.03039C11.9407 1.03039 11.9407 1.0304 11.9407 1.0304C11.9407 1.0304 11.9407 1.0304 11.9407 1.0304C11.9407 1.0304 11.9407 1.0304 11.9407 1.0304C11.9407 1.0304 11.9407 1.0304 11.9407 1.0304C11.9407 1.0304 11.9407 1.0304 11.9407 1.0304C11.9407 1.0304 11.9407 1.0304 11.9407 1.0304C11.9407 1.0304 11.9407 1.0304 11.9407 1.0304C11.9407 1.0304 11.9407 1.0304 11.9407 1.0304C11.9407 1.0304 11.9407 1.0304 11.9407 1.0304C11.9407 1.0304 11.9407 1.0304 11.9407 1.0304C11.9407 1.0304 11.9407 1.0304 11.9407 1.0304C11.9407 1.0304 11.9407 1.0304 11.9407 1.0304C11.9407 1.0304 11.9407 1.0304 11.9407 1.0304C11.9407 1.0304 11.9407 1.0304 11.9407 1.0304C11.9407 1.0304 11.9407 1.0304 11.9407 1.0304C11.9407 1.0304 11.9407 1.0304 11.9407 1.0304C11.9407 1.0304 11.9407 1.0304 11.9407 1.0304C11.9407 1.0304 11.9407 1.0304 11.9407 1.0304C11.9407 1.0304 11.9407 1.0304 11.9407 1.0304C11.9407 1.0304 11.9407 1.0304 11.9407 1.0304C11.9407 1.0304 11.9407 1.0304 11.9407 1.0304C11.9407 1.0304 11.9407 1.0304 11.9407 1.0304C11.9407 1.0304 11.9407 1.0304 11.9407 1.0304C11.9407 1.0304 11.9407 1.0304 11.9407 1.0304C11.9407 1.0304 11.9407 1.0304 11.9407 1.0304C11.9407 1.0304 11.9407 1.0304 11.9407 1.0304C11.9407 1.0304 11.9407 1.0304 11.9407 1.0304C11.9407 1.0304 11.9407 1.0304 11.9407 1.0304C11.9407 1.0304 11.9407 1.0304 11.9407 1.0304C11.9407 1.0304 11.9407 1.0304 11.9407 1.0304C11.9407 1.0304 11.9407 1.0304 11.9407 1.0304C11.9407 1.0304 11.9407 1.0304 11.9407 1.0304C11.9407 1.0304 11.9407 1.0304 11.9407 1.0304C11.9407 1.0304 11.9407 1.0304 11.9407 1.0304C11.9407 1.0304 11.9407 1.0304 11.9407 1.0304C11.9407 1.0304 11.9407 1.03041 11.9407 1.03041C11.9407 1.03041 11.9407 1.03041 11.9407 1.03041C11.9407 1.03041 11.9407 1.03041 11.9407 1.03041C11.9407 1.03041 11.9407 1.03041 11.9407 1.03041C11.9407 1.03041 11.9407 1.03041 11.9407 1.03041C11.9407 1.03041 11.9407 1.03041 11.9407 1.03041C11.9407 1.03041 11.9407 1.03041 11.9407 1.03041C11.9407 1.03041 11.9407 1.03041 11.9407 1.03041C11.9407 1.03041 11.9407 1.03041 11.9407 1.03041C11.9407 1.03041 11.9407 1.03041 11.9407 1.03041C11.9407 1.03041 11.9407 1.03041 11.9407 1.03041C11.9407 1.03041 11.9407 1.03041 11.9407 1.03041C11.9407 1.03041 11.9407 1.03041 11.9407 1.03041C11.9407 1.03041 11.9407 1.03041 11.9407 1.03041C11.9407 1.03041 11.9407 1.03041 11.9407 1.03041C11.9407 1.03041 11.9407 1.03041 11.9407 1.03041C11.9407 1.03041 11.9407 1.03041 11.9407 1.03041C11.9407 1.03041 11.9407 1.03041 11.9407 1.03041C11.9407 1.03041 11.9407 1.03041 11.9407 1.03041C11.9407 1.03041 11.9407 1.03041 11.9407 1.03041C11.9407 1.03041 11.9407 1.03041 11.9407 1.03041C11.9407 1.03041 11.9407 1.03041 11.9407 1.03041C11.9407 1.03041 11.9407 1.03041 11.9407 1.03041C11.9407 1.03041 11.9407 1.03041 11.9407 1.03041C11.9407 1.03041 11.9407 1.03041 11.9407 1.03041C11.9407 1.03041 11.9407 1.03041 11.9407 1.03041C11.9407 1.03041 11.9407 1.03041 11.9407 1.03041C11.9407 1.03041 11.9407 1.03041 11.9407 1.03041C11.9407 1.03041 11.9407 1.03041 11.9407 1.03041C11.9407 1.03041 11.9407 1.03041 11.9407 1.03041C11.9407 1.03041 11.9407 1.03041 11.9407 1.03041C11.9407 1.03041 11.9407 1.03041 11.9407 1.03041C11.9407 1.03041 11.9407 1.03041 11.9407 1.03041C11.9407 1.03041 11.9407 1.03041 11.9407 1.03041C11.9407 1.03041 11.9407 1.03041 11.9407 1.03041C11.9407 1.03041 11.9407 1.03041 11.9407 1.03042C11.9407 1.03042 11.9407 1.03042 11.9407 1.03042C11.9407 1.03042 11.9407 1.03042 11.9407 1.03042C11.9407 1.03042 11.9407 1.03042 11.9407 1.03042C11.9407 1.03042 11.9407 1.03042 11.9407 1.03042C11.9407 1.03042 11.9407 1.03042 11.9407 1.03042C11.9407 1.03042 11.9407 1.03042 11.9407 1.03042C11.9407 1.03042 11.9407 1.03042 11.9407 1.03042C11.9407 1.03042 11.9407 1.03042 11.9407 1.03042C11.9407 1.03042 11.9407 1.03042 11.9407 1.03042C11.9407 1.03042 11.9407 1.03042 11.9407 1.03042C11.9407 1.03042 11.9407 1.03042 11.9407 1.03042C11.9407 1.03042 11.9407 1.03042 11.9407 1.03042C11.9407 1.03042 11.9407 1.03042 11.9407 1.03042C11.9407 1.03042 11.9407 1.03042 11.9407 1.03042C11.9407 1.03042 11.9407 1.03042 11.9407 1.03042H12.2653C12.2653 1.03042 12.2653 1.03042 12.2653 1.03042C12.2653 1.03042 12.2653 1.03042 12.2653 1.03042C12.2653 1.03042 12.2653 1.03042 12.2653 1.03042C12.2653 1.03042 12.2653 1.03042 12.2653 1.03042C12.2653 1.03042 12.2653 1.03042 12.2653 1.03042C12.2653 1.03042 12.2653 1.03042 12.2653 1.03042C12.2653 1.03042 12.2653 1.03042 12.2653 1.03042C12.2653 1.03042 12.2653 1.03042 12.2653 1.03042C12.2653 1.03042 12.2653 1.03042 12.2653 1.03042C12.2653 1.03042 12.2653 1.03042 12.2653 1.03042C12.2653 1.03042 12.2653 1.03042 12.2653 1.03042C12.2653 1.03042 12.2653 1.03042 12.2653 1.03042C12.2653 1.03042 12.2653 1.03042 12.2653 1.03042C12.2653 1.03042 12.2653 1.03042 12.2653 1.03042C12.2653 1.03042 12.2653 1.03042 12.2653 1.03042C12.2653 1.03041 12.2653 1.03041 12.2653 1.03041C12.2653 1.03041 12.2653 1.03041 12.2653 1.03041C12.2653 1.03041 12.2653 1.03041 12.2653 1.03041C12.2653 1.03041 12.2653 1.03041 12.2653 1.03041C12.2653 1.03041 12.2653 1.03041 12.2653 1.03041C12.2653 1.03041 12.2653 1.03041 12.2653 1.03041C12.2653 1.03041 12.2653 1.03041 12.2653 1.03041C12.2653 1.03041 12.2653 1.03041 12.2653 1.03041C12.2653 1.03041 12.2653 1.03041 12.2653 1.03041C12.2653 1.03041 12.2653 1.03041 12.2653 1.03041C12.2653 1.03041 12.2653 1.03041 12.2653 1.03041C12.2653 1.03041 12.2653 1.03041 12.2653 1.03041C12.2653 1.03041 12.2653 1.03041 12.2653 1.03041C12.2653 1.03041 12.2653 1.03041 12.2653 1.03041C12.2653 1.03041 12.2653 1.03041 12.2653 1.03041C12.2653 1.03041 12.2653 1.03041 12.2653 1.03041C12.2653 1.03041 12.2653 1.03041 12.2653 1.03041C12.2653 1.03041 12.2653 1.03041 12.2653 1.03041C12.2653 1.03041 12.2653 1.03041 12.2653 1.03041C12.2653 1.03041 12.2653 1.03041 12.2653 1.03041C12.2653 1.03041 12.2653 1.03041 12.2653 1.03041C12.2653 1.03041 12.2653 1.03041 12.2653 1.03041C12.2653 1.03041 12.2653 1.03041 12.2653 1.03041C12.2653 1.03041 12.2653 1.03041 12.2653 1.03041C12.2653 1.03041 12.2653 1.03041 12.2653 1.03041C12.2653 1.03041 12.2653 1.03041 12.2653 1.03041C12.2653 1.03041 12.2653 1.03041 12.2653 1.03041C12.2653 1.03041 12.2653 1.03041 12.2653 1.03041C12.2653 1.03041 12.2653 1.03041 12.2653 1.03041C12.2653 1.03041 12.2653 1.03041 12.2653 1.03041C12.2653 1.03041 12.2653 1.03041 12.2653 1.03041C12.2653 1.03041 12.2653 1.03041 12.2653 1.03041C12.2653 1.03041 12.2653 1.03041 12.2653 1.03041C12.2653 1.03041 12.2653 1.03041 12.2653 1.03041C12.2653 1.03041 12.2653 1.03041 12.2653 1.03041C12.2653 1.03041 12.2653 1.0304 12.2653 1.0304C12.2653 1.0304 12.2653 1.0304 12.2653 1.0304C12.2653 1.0304 12.2653 1.0304 12.2653 1.0304C12.2653 1.0304 12.2653 1.0304 12.2653 1.0304C12.2653 1.0304 12.2653 1.0304 12.2653 1.0304C12.2653 1.0304 12.2653 1.0304 12.2653 1.0304C12.2653 1.0304 12.2653 1.0304 12.2653 1.0304C12.2653 1.0304 12.2653 1.0304 12.2653 1.0304C12.2653 1.0304 12.2653 1.0304 12.2653 1.0304C12.2653 1.0304 12.2653 1.0304 12.2653 1.0304C12.2653 1.0304 12.2653 1.0304 12.2653 1.0304C12.2653 1.0304 12.2653 1.0304 12.2653 1.0304C12.2653 1.0304 12.2653 1.0304 12.2653 1.0304C12.2653 1.0304 12.2653 1.0304 12.2653 1.0304C12.2653 1.0304 12.2653 1.0304 12.2653 1.0304C12.2653 1.0304 12.2653 1.0304 12.2653 1.0304C12.2653 1.0304 12.2653 1.0304 12.2653 1.0304C12.2653 1.0304 12.2653 1.0304 12.2653 1.0304C12.2653 1.0304 12.2653 1.0304 12.2653 1.0304C12.2653 1.0304 12.2653 1.0304 12.2653 1.0304C12.2653 1.0304 12.2653 1.0304 12.2653 1.0304C12.2653 1.0304 12.2653 1.0304 12.2653 1.0304C12.2653 1.0304 12.2653 1.0304 12.2653 1.0304C12.2653 1.0304 12.2653 1.0304 12.2653 1.0304C12.2653 1.0304 12.2653 1.0304 12.2653 1.0304C12.2653 1.0304 12.2653 1.0304 12.2653 1.0304C12.2653 1.0304 12.2653 1.0304 12.2653 1.0304C12.2653 1.0304 12.2653 1.0304 12.2653 1.0304C12.2653 1.0304 12.2653 1.0304 12.2653 1.0304C12.2653 1.0304 12.2653 1.0304 12.2653 1.0304C12.2653 1.0304 12.2653 1.0304 12.2653 1.0304C12.2653 1.0304 12.2653 1.0304 12.2653 1.0304C12.2653 1.0304 12.2653 1.0304 12.2653 1.0304C12.2653 1.0304 12.2653 1.0304 12.2653 1.0304C12.2653 1.0304 12.2653 1.0304 12.2653 1.0304C12.2653 1.0304 12.2653 1.03039 12.2653 1.03039C12.2653 1.03039 12.2653 1.03039 12.2653 1.03039C12.2653 1.03039 12.2653 1.03039 12.2653 1.03039C12.2653 1.03039 12.2653 1.03039 12.2653 1.03039C12.2653 1.03039 12.2653 1.03039 12.2653 1.03039C12.2653 1.03039 12.2653 1.03039 12.2653 1.03039C12.2653 1.03039 12.2653 1.03039 12.2653 1.03039C12.2653 1.03039 12.2653 1.03039 12.2653 1.03039C12.2653 1.03039 12.2653 1.03039 12.2653 1.03039C12.2653 1.03039 12.2653 1.03039 12.2653 1.03039C12.2653 1.03039 12.2653 1.03039 12.2653 1.03039C12.2653 1.03039 12.2653 1.03039 12.2653 1.03039C12.2653 1.03039 12.2653 1.03039 12.2653 1.03039C12.2653 1.03039 12.2653 1.03039 12.2653 1.03039C12.2653 1.03039 12.2653 1.03039 12.2653 1.03039C12.2653 1.03039 12.2653 1.03039 12.2653 1.03039C12.2653 1.03039 12.2653 1.03039 12.2653 1.03039C12.2653 1.03039 12.2653 1.03039 12.2653 1.03039C12.2653 1.03039 12.2653 1.03039 12.2653 1.03039C12.2653 1.03039 12.2653 1.03039 12.2653 1.03039C12.2653 1.03039 12.2653 1.03039 12.2653 1.03039C12.2653 1.03039 12.2653 1.03039 12.2653 1.03039C12.2653 1.03039 12.2653 1.03039 12.2653 1.03039C12.2653 1.03039 12.2653 1.03039 12.2653 1.03039C12.2653 1.03039 12.2653 1.03039 12.2653 1.03039C12.2653 1.03039 12.2653 1.03039 12.2653 1.03039C12.2653 1.03039 12.2653 1.03039 12.2653 1.03039C12.2653 1.03039 12.2653 1.03039 12.2653 1.03039C12.2653 1.03039 12.2653 1.03039 12.2653 1.03039C12.2653 1.03039 12.2653 1.03039 12.2653 1.03039C12.2653 1.03039 12.2653 1.03039 12.2653 1.03039C12.2653 1.03039 12.2653 1.03039 12.2653 1.03039C12.2653 1.03039 12.2653 1.03039 12.2653 1.03039C12.2653 1.03039 12.2653 1.03039 12.2653 1.03039C12.2653 1.03039 12.2653 1.03039 12.2653 1.03039C12.2653 1.03039 12.2653 1.03038 12.2653 1.03038C12.2653 1.03038 12.2653 1.03038 12.2653 1.03038C12.2653 1.03038 12.2653 1.03038 12.2653 1.03038C12.2653 1.03038 12.2653 1.03038 12.2653 1.03038C12.2653 1.03038 12.2653 1.03038 12.2653 1.03038C12.2653 1.03038 12.2653 1.03038 12.2653 1.03038C12.2653 1.03038 12.2653 1.03038 12.2653 1.03038C12.2653 1.03038 12.2653 1.03038 12.2653 1.03038C12.2653 1.03038 12.2653 1.03038 12.2653 1.03038C12.2653 1.03038 12.2653 1.03038 12.2653 1.03038C12.2653 1.03038 12.2653 1.03038 12.2653 1.03038C12.2653 1.03038 12.2653 1.03038 12.2653 1.03038C12.2653 1.03038 12.2653 1.03038 12.2653 1.03038C12.2653 1.03038 12.2653 1.03038 12.2653 1.03038C12.2653 1.03038 12.2653 1.03038 12.2653 1.03038C12.2653 1.03038 12.2653 1.03038 12.2653 1.03038C12.2653 1.03038 12.2653 1.03038 12.2653 1.03038C12.2653 1.03038 12.2653 1.03038 12.2653 1.03038C12.2653 1.03038 12.2653 1.03038 12.2653 1.03038C12.2653 1.03038 12.2653 1.03038 12.2653 1.03038C12.2653 1.03038 12.2653 1.03038 12.2653 1.03038C12.2653 1.03038 12.2653 1.03038 12.2653 1.03038C12.2653 1.03038 12.2653 1.03038 12.2653 1.03038C12.2653 1.03038 12.2653 1.03038 12.2653 1.03038C12.2653 1.03038 12.2653 1.03038 12.2653 1.03038C12.2653 1.03038 12.2653 1.03038 12.2653 1.03038C12.2653 1.03038 12.2653 1.03038 12.2653 1.03038C12.2653 1.03038 12.2653 1.03038 12.2653 1.03038C12.2653 1.03038 12.2653 1.03038 12.2653 1.03038C12.2653 1.03038 12.2653 1.03038 12.2653 1.03038C12.2653 1.03038 12.2653 1.03038 12.2653 1.03038C12.2653 1.03038 12.2653 1.03038 12.2653 1.03038C12.2653 1.03038 12.2653 1.03038 12.2653 1.03038C12.2653 1.03038 12.2653 1.03038 12.2653 1.03038C12.2653 1.03038 12.2653 1.03038 12.2653 1.03038C12.2653 1.03038 12.2653 1.03037 12.2653 1.03037C12.2653 1.03037 12.2653 1.03037 12.2653 1.03037C12.2653 1.03037 12.2653 1.03037 12.2653 1.03037C12.2653 1.03037 12.2653 1.03037 12.2653 1.03037C12.2653 1.03037 12.2653 1.03037 12.2653 1.03037C12.2653 1.03037 12.2653 1.03037 12.2653 1.03037C12.2653 1.03037 12.2653 1.03037 12.2653 1.03037C12.2653 1.03037 12.2653 1.03037 12.2653 1.03037C12.2653 1.03037 12.2653 1.03037 12.2653 1.03037C12.2653 1.03037 12.2653 1.03037 12.2653 1.03037C12.2653 1.03037 12.2653 1.03037 12.2653 1.03037C12.2653 1.03037 12.2653 1.03037 12.2653 1.03037C12.2653 1.03037 12.2653 1.03037 12.2653 1.03037C12.2653 1.03037 12.2653 1.03037 12.2653 1.03037C12.2653 1.03037 12.2653 1.03037 12.2653 1.03037C12.2653 1.03037 12.2653 1.03037 12.2653 1.03037C12.2653 1.03037 12.2653 1.03037 12.2653 1.03037C12.2653 1.03037 12.2653 1.03037 12.2653 1.03037C12.2653 1.03037 12.2653 1.03037 12.2653 1.03037C12.2653 1.03037 12.2653 1.03037 12.2653 1.03037C12.2653 1.03037 12.2653 1.03037 12.2653 1.03037C12.2653 1.03037 12.2653 1.03037 12.2653 1.03037C12.2653 1.03037 12.2653 1.03037 12.2653 1.03037C12.2653 1.03037 12.2653 1.03037 12.2653 1.03037C12.2653 1.03037 12.2653 1.03037 12.2653 1.03037C12.2653 1.03037 12.2653 1.03037 12.2653 1.03037C12.2653 1.03037 12.2653 1.03037 12.2653 1.03037C12.2653 1.03037 12.2653 1.03037 12.2653 1.03037C12.2653 1.03037 12.2653 1.03037 12.2653 1.03037C12.2653 1.03037 12.2653 1.03037 12.2653 1.03037C12.2653 1.03037 12.2653 1.03037 12.2653 1.03037C12.2653 1.03037 12.2653 1.03037 12.2653 1.03037C12.2653 1.03037 12.2653 1.03037 12.2653 1.03037C12.2653 1.03037 12.2653 1.03037 12.2653 1.03037C12.2653 1.03037 12.2653 1.03037 12.2653 1.03037C12.2653 1.03037 12.2653 1.03037 12.2653 1.03036C12.2653 1.03036 12.2653 1.03036 12.2653 1.03036C12.2653 1.03036 12.2653 1.03036 12.2653 1.03036C12.2653 1.03036 12.2653 1.03036 12.2653 1.03036C12.2653 1.03036 12.2653 1.03036 12.2653 1.03036C12.2653 1.03036 12.2653 1.03036 12.2653 1.03036C12.2653 1.03036 12.2653 1.03036 12.2653 1.03036C12.2653 1.03036 12.2653 1.03036 12.2653 1.03036C12.2653 1.03036 12.2653 1.03036 12.2653 1.03036C12.2653 1.03036 12.2653 1.03036 12.2653 1.03036C12.2653 1.03036 12.2653 1.03036 12.2653 1.03036C12.2653 1.03036 12.2653 1.03036 12.2653 1.03036C12.2653 1.03036 12.2653 1.03036 12.2653 1.03036C12.2653 1.03036 12.2653 1.03036 12.2653 1.03036C12.2653 1.03036 12.2653 1.03036 12.2653 1.03036C12.2653 1.03036 12.2653 1.03036 12.2653 1.03036C12.2653 1.03036 12.2653 1.03036 12.2653 1.03036C12.2653 1.03036 12.2653 1.03036 12.2653 1.03036C12.2653 1.03036 12.2653 1.03036 12.2653 1.03036C12.2653 1.03036 12.2653 1.03036 12.2653 1.03036C12.2653 1.03036 12.2653 1.03036 12.2653 1.03036C12.2653 1.03036 12.2653 1.03036 12.2653 1.03036C12.2653 1.03036 12.2653 1.03036 12.2653 1.03036C12.2653 1.03036 12.2653 1.03036 12.2653 1.03036C12.2653 1.03036 12.2653 1.03036 12.2653 1.03036C12.2653 1.03036 12.2653 1.03036 12.2653 1.03036C12.2653 1.03036 12.2653 1.03036 12.2653 1.03036C12.2653 1.03036 12.2653 1.03036 12.2653 1.03036C12.2653 1.03036 12.2653 1.03036 12.2653 1.03036C12.2653 1.03036 12.2653 1.03036 12.2653 1.03036C12.2653 1.03036 12.2653 1.03036 12.2653 1.03036C12.2653 1.03036 12.2653 1.03036 12.2653 1.03036C12.2653 1.03036 12.2653 1.03036 12.2653 1.03036C12.2653 1.03036 12.2653 1.03036 12.2653 1.03036C12.2653 1.03036 12.2653 1.03036 12.2653 1.03036C12.2653 1.03036 12.2653 1.03036 12.2653 1.03035C12.2653 1.03035 12.2653 1.03035 12.2653 1.03035C12.2653 1.03035 12.2653 1.03035 12.2653 1.03035C12.2653 1.03035 12.2653 1.03035 12.2653 1.03035C12.2653 1.03035 12.2653 1.03035 12.2653 1.03035C12.2653 1.03035 12.2653 1.03035 12.2653 1.03035C12.2653 1.03035 12.2653 1.03035 12.2653 1.03035C12.2653 1.03035 12.2653 1.03035 12.2653 1.03035C12.2653 1.03035 12.2653 1.03035 12.2653 1.03035C12.2653 1.03035 12.2653 1.03035 12.2653 1.03035C12.2653 1.03035 12.2653 1.03035 12.2653 1.03035C12.2653 1.03035 12.2653 1.03035 12.2653 1.03035C12.2653 1.03035 12.2653 1.03035 12.2653 1.03035C12.2653 1.03035 12.2653 1.03035 12.2653 1.03035C12.2653 1.03035 12.2653 1.03035 12.2653 1.03035C12.2653 1.03035 12.2653 1.03035 12.2653 1.03035C12.2653 1.03035 12.2653 1.03035 12.2653 1.03035C12.2653 1.03035 12.2653 1.03035 12.2653 1.03035C12.2653 1.03035 12.2653 1.03035 12.2653 1.03035C12.2653 1.03035 12.2653 1.03035 12.2653 1.03035C12.2653 1.03035 12.2653 1.03035 12.2653 1.03035C12.2653 1.03035 12.2653 1.03035 12.2653 1.03035C12.2653 1.03035 12.2653 1.03035 12.2653 1.03035C12.2653 1.03035 12.2653 1.03035 12.2653 1.03035C12.2653 1.03035 12.2653 1.03035 12.2653 1.03035C12.2653 1.03035 12.2653 1.03035 12.2653 1.03035C12.2653 1.03035 12.2653 1.03035 12.2653 1.03035C12.2653 1.03035 12.2653 1.03035 12.2653 1.03035C12.2653 1.03035 12.2653 1.03035 12.2653 1.03035C12.2653 1.03035 12.2653 1.03035 12.2653 1.03035C12.2653 1.03035 12.2653 1.03035 12.2653 1.03035C12.2653 1.03035 12.2653 1.03035 12.2653 1.03035C12.2653 1.03035 12.2653 1.03035 12.2653 1.03035C12.2653 1.03035 12.2653 1.03035 12.2653 1.03035C12.2653 1.03035 12.2653 1.03035 12.2653 1.03035C12.2653 1.03035 12.2653 1.03035 12.2653 1.03034C12.2653 1.03034 12.2653 1.03034 12.2653 1.03034C12.2653 1.03034 12.2653 1.03034 12.2653 1.03034C12.2653 1.03034 12.2653 1.03034 12.2653 1.03034C12.2653 1.03034 12.2653 1.03034 12.2653 1.03034C12.2653 1.03034 12.2653 1.03034 12.2653 1.03034C12.2653 1.03034 12.2653 1.03034 12.2653 1.03034C12.2653 1.03034 12.2653 1.03034 12.2653 1.03034C12.2653 1.03034 12.2653 1.03034 12.2653 1.03034C12.2653 1.03034 12.2653 1.03034 12.2653 1.03034C12.2653 1.03034 12.2653 1.03034 12.2653 1.03034C12.2653 1.03034 12.2653 1.03034 12.2653 1.03034C12.2653 1.03034 12.2653 1.03034 12.2653 1.03034C12.2653 1.03034 12.2653 1.03034 12.2653 1.03034C12.2653 1.03034 12.2653 1.03034 12.2653 1.03034C12.2653 1.03034 12.2653 1.03034 12.2653 1.03034C12.2653 1.03034 12.2653 1.03034 12.2653 1.03034C12.2653 1.03034 12.2653 1.03034 12.2653 1.03034C12.2653 1.03034 12.2653 1.03034 12.2653 1.03034C12.2653 1.03034 12.2653 1.03034 12.2653 1.03034C12.2653 1.03034 12.2653 1.03034 12.2653 1.03034C12.2653 1.03034 12.2653 1.03034 12.2653 1.03034C12.2653 1.03034 12.2653 1.03034 12.2653 1.03034C12.2653 1.03034 12.2653 1.03034 12.2653 1.03034C12.2653 1.03034 12.2653 1.03034 12.2653 1.03034C12.2653 1.03034 12.2653 1.03034 12.2653 1.03034C12.2653 1.03034 12.2653 1.03034 12.2653 1.03034C12.2653 1.03034 12.2653 1.03034 12.2653 1.03034C12.2653 1.03034 12.2653 1.03034 12.2653 1.03034C12.2653 1.03034 12.2653 1.03034 12.2653 1.03034C12.2653 1.03034 12.2653 1.03034 12.2653 1.03034C12.2653 1.03034 12.2653 1.03034 12.2653 1.03034C12.2653 1.03034 12.2653 1.03034 12.2653 1.03034C12.2653 1.03034 12.2653 1.03034 12.2653 1.03034C12.2653 1.03034 12.2653 1.03034 12.2653 1.03034C12.2653 1.03034 12.2653 1.03034 12.2653 1.03033C12.2653 1.03033 12.2653 1.03033 12.2653 1.03033C12.2653 1.03033 12.2653 1.03033 12.2653 1.03033C12.2653 1.03033 12.2653 1.03033 12.2653 1.03033C12.2653 1.03033 12.2653 1.03033 12.2653 1.03033C12.2653 1.03033 12.2653 1.03033 12.2653 1.03033C12.2653 1.03033 12.2653 1.03033 12.2653 1.03033C12.2653 1.03033 12.2653 1.03033 12.2653 1.03033C12.2653 1.03033 12.2653 1.03033 12.2653 1.03033C12.2653 1.03033 12.2653 1.03033 12.2653 1.03033C12.2653 1.03033 12.2653 1.03033 12.2653 1.03033C12.2653 1.03033 12.2653 1.03033 12.2653 1.03033C12.2653 1.03033 12.2653 1.03033 12.2653 1.03033C12.2653 1.03033 12.2653 1.03033 12.2653 1.03033C12.2653 1.03033 12.2653 1.03033 12.2653 1.03033C12.2653 1.03033 12.2653 1.03033 12.2653 1.03033C12.2653 1.03033 12.2653 1.03033 12.2653 1.03033C12.2653 1.03033 12.2653 1.03033 12.2653 1.03033C12.2653 1.03033 12.2653 1.03033 12.2653 1.03033C12.2653 1.03033 12.2653 1.03033 12.2653 1.03033C12.2653 1.03033 12.2653 1.03033 12.2653 1.03033C12.2653 1.03033 12.2653 1.03033 12.2653 1.03033C12.2653 1.03033 12.2653 1.03033 12.2653 1.03033C12.2653 1.03033 12.2653 1.03033 12.2653 1.03033C12.2653 1.03033 12.2653 1.03033 12.2653 1.03033C12.2653 1.03033 12.2653 1.03033 12.2653 1.03033C12.2653 1.03033 12.2653 1.03033 12.2653 1.03033C12.2653 1.03033 12.2653 1.03033 12.2653 1.03033C12.2653 1.03033 12.2653 1.03033 12.2653 1.03033C12.2653 1.03033 12.2653 1.03033 12.2653 1.03033C12.2653 1.03033 12.2653 1.03033 12.2653 1.03033C12.2653 1.03033 12.2653 1.03033 12.2653 1.03033C12.2653 1.03033 12.2653 1.03033 12.2653 1.03033C12.2653 1.03033 12.2653 1.03033 12.2653 1.03033C12.2653 1.03033 12.2653 1.03033 12.2653 1.03033C12.2653 1.03033 12.2653 1.03033 12.2653 1.03033C12.2653 1.03032 12.2653 1.03032 12.2653 1.03032C12.2653 1.03032 12.2653 1.03032 12.2653 1.03032C12.2653 1.03032 12.2653 1.03032 12.2653 1.03032C12.2653 1.03032 12.2653 1.03032 12.2653 1.03032C12.2653 1.03032 12.2653 1.03032 12.2653 1.03032C12.2653 1.03032 12.2653 1.03032 12.2653 1.03032C12.2653 1.03032 12.2653 1.03032 12.2653 1.03032C12.2653 1.03032 12.2653 1.03032 12.2653 1.03032C12.2653 1.03032 12.2653 1.03032 12.2653 1.03032C12.2653 1.03032 12.2653 1.03032 12.2653 1.03032C12.2653 1.03032 12.2653 1.03032 12.2653 1.03032C12.2653 1.03032 12.2653 1.03032 12.2653 1.03032C12.2653 1.03032 12.2653 1.03032 12.2653 1.03032C12.2653 1.03032 12.2653 1.03032 12.2653 1.03032C12.2653 1.03032 12.2653 1.03032 12.2653 1.03032C12.2653 1.03032 12.2653 1.03032 12.2653 1.03032C12.2653 1.03032 12.2653 1.03032 12.2653 1.03032C12.2653 1.03032 12.2653 1.03032 12.2653 1.03032C12.2653 1.03032 12.2653 1.03032 12.2653 1.03032C12.2653 1.03032 12.2653 1.03032 12.2653 1.03032C12.2653 1.03032 12.2653 1.03032 12.2653 1.03032C12.2653 1.03032 12.2653 1.03032 12.2653 1.03032C12.2653 1.03032 12.2653 1.03032 12.2653 1.03032C12.2653 1.03032 12.2653 1.03032 12.2653 1.03032C12.2653 1.03032 12.2653 1.03032 12.2653 1.03032C12.2653 1.03032 12.2653 1.03032 12.2653 1.03032C12.2653 1.03032 12.2653 1.03032 12.2653 1.03032C12.2653 1.03032 12.2653 1.03032 12.2653 1.03032C12.2653 1.03032 12.2653 1.03032 12.2653 1.03032C12.2653 1.03032 12.2653 1.03032 12.2653 1.03032C12.2653 1.03032 12.2653 1.03032 12.2653 1.03032C12.2653 1.03032 12.2653 1.03032 12.2653 1.03032C12.2653 1.03032 12.2653 1.03032 12.2653 1.03032C12.2653 1.03032 12.2653 1.03032 12.2653 1.03032C12.2653 1.03032 12.2653 1.03032 12.2653 1.03032C12.2653 1.03031 12.2653 1.03031 12.2653 1.03031C12.2653 1.03031 12.2653 1.03031 12.2653 1.03031C12.2653 1.03031 12.2653 1.03031 12.2653 1.03031C12.2653 1.03031 12.2653 1.03031 12.2653 1.03031C12.2653 1.03031 12.2653 1.03031 12.2653 1.03031C12.2653 1.03031 12.2653 1.03031 12.2653 1.03031C12.2653 1.03031 12.2653 1.03031 12.2653 1.03031C12.2653 1.03031 12.2653 1.03031 12.2653 1.03031C12.2653 1.03031 12.2653 1.03031 12.2653 1.03031C12.2653 1.03031 12.2653 1.03031 12.2653 1.03031C12.2653 1.03031 12.2653 1.03031 12.2653 1.03031C12.2653 1.03031 12.2653 1.03031 12.2653 1.03031C12.2653 1.03031 12.2653 1.03031 12.2653 1.03031C12.2653 1.03031 12.2653 1.03031 12.2653 1.03031C12.2653 1.03031 12.2653 1.03031 12.2653 1.03031C12.2653 1.03031 12.2653 1.03031 12.2653 1.03031C12.2653 1.03031 12.2653 1.03031 12.2653 1.03031C12.2653 1.03031 12.2653 1.03031 12.2653 1.03031C12.2653 1.03031 12.2653 1.03031 12.2653 1.03031C12.2653 1.03031 12.2653 1.03031 12.2653 1.03031C12.2653 1.03031 12.2653 1.03031 12.2653 1.03031C12.2653 1.03031 12.2653 1.03031 12.2653 1.03031C12.2653 1.03031 12.2653 1.03031 12.2653 1.03031C12.2653 1.03031 12.2653 1.03031 12.2653 1.03031C12.2653 1.03031 12.2653 1.03031 12.2653 1.03031C12.2653 1.03031 12.2653 1.03031 12.2653 1.03031C12.2653 1.03031 12.2653 1.03031 12.2653 1.03031C12.2653 1.03031 12.2653 1.03031 12.2653 1.03031C12.2653 1.03031 12.2653 1.03031 12.2653 1.03031C12.2653 1.03031 12.2653 1.03031 12.2653 1.03031C12.2653 1.03031 12.2653 1.03031 12.2653 1.03031C12.2653 1.03031 12.2653 1.03031 12.2653 1.03031C12.2653 1.03031 12.2653 1.03031 12.2653 1.03031C12.2653 1.03031 12.2653 1.03031 12.2653 1.03031C12.2653 1.03031 12.2653 1.03031 12.2653 1.03031C12.2653 1.0303 12.2653 1.0303 12.2653 1.0303C12.2653 1.0303 12.2653 1.0303 12.2653 1.0303C12.2653 1.0303 12.2653 1.0303 12.2653 1.0303C12.2653 1.0303 12.2653 1.0303 12.2653 1.0303C12.2653 1.0303 12.2653 1.0303 12.2653 1.0303C12.2653 1.0303 12.2653 1.0303 12.2653 1.0303C12.2653 1.0303 12.2653 1.0303 12.2653 1.0303C12.2653 1.0303 12.2653 1.0303 12.2653 1.0303C12.2653 1.0303 12.2653 1.0303 12.2653 1.0303C12.2653 1.0303 12.2653 1.0303 12.2653 1.0303C12.2653 1.0303 12.2653 1.0303 12.2653 1.0303C12.2653 1.0303 12.2653 1.0303 12.2653 1.0303C12.2653 1.0303 12.2653 1.0303 12.2653 1.0303C12.2653 1.0303 12.2653 1.0303 12.2653 1.0303C12.2653 1.0303 12.2653 1.0303 12.2653 1.0303C12.2653 1.0303 12.2653 1.0303 12.2653 1.0303C12.2653 1.0303 12.2653 1.0303 12.2653 1.0303C12.2653 1.0303 12.2653 1.0303 12.2653 1.0303C12.2653 1.0303 12.2653 1.0303 12.2653 1.0303C12.2653 1.0303 12.2653 1.0303 12.2653 1.0303C12.2653 1.0303 12.2653 1.0303 12.2653 1.0303C12.2653 1.0303 12.2653 1.0303 12.2653 1.0303C12.2653 1.0303 12.2653 1.0303 12.2653 1.0303C12.2653 1.0303 12.2653 1.0303 12.2653 1.0303C12.2653 1.0303 12.2653 1.0303 12.2653 1.0303C12.2653 1.0303 12.2653 1.0303 12.2653 1.0303C12.2653 1.0303 12.2653 1.0303 12.2653 1.0303C12.2653 1.0303 12.2653 1.0303 12.2653 1.0303C12.2653 1.0303 12.2653 1.0303 12.2653 1.0303C12.2653 1.0303 12.2653 1.0303 12.2653 1.0303C12.2653 1.0303 12.2653 1.0303 12.2653 1.0303C12.2653 1.0303 12.2653 1.0303 12.2653 1.0303C12.2653 1.0303 12.2653 1.0303 12.2653 1.0303C12.2653 1.0303 12.2653 1.0303 12.2653 1.0303C12.2653 1.0303 12.2653 1.0303 12.2653 1.0303C12.2653 1.0303 12.2653 1.03029 12.2653 1.03029C12.2653 1.03029 12.2653 1.03029 12.2653 1.03029C12.2653 1.03029 12.2653 1.03029 12.2653 1.03029C12.2653 1.03029 12.2653 1.03029 12.2653 1.03029C12.2653 1.03029 12.2653 1.03029 12.2653 1.03029C12.2653 1.03029 12.2653 1.03029 12.2653 1.03029C12.2653 1.03029 12.2653 1.03029 12.2653 1.03029C12.2653 1.03029 12.2653 1.03029 12.2653 1.03029C12.2653 1.03029 12.2653 1.03029 12.2653 1.03029C12.2653 1.03029 12.2653 1.03029 12.2653 1.03029C12.2653 1.03029 12.2653 1.03029 12.2653 1.03029C12.2653 1.03029 12.2653 1.03029 12.2653 1.03029C12.2653 1.03029 12.2653 1.03029 12.2653 1.03029C12.2653 1.03029 12.2653 1.03029 12.2653 1.03029C12.2653 1.03029 12.2653 1.03029 12.2653 1.03029C12.2653 1.03029 12.2653 1.03029 12.2653 1.03029C12.2653 1.03029 12.2653 1.03029 12.2653 1.03029C12.2653 1.03029 12.2653 1.03029 12.2653 1.03029C12.2653 1.03029 12.2653 1.03029 12.2653 1.03029C12.2653 1.03029 12.2653 1.03029 12.2653 1.03029C12.2653 1.03029 12.2653 1.03029 12.2653 1.03029C12.2653 1.03029 12.2653 1.03029 12.2653 1.03029C12.2653 1.03029 12.2653 1.03029 12.2653 1.03029C12.2653 1.03029 12.2653 1.03029 12.2653 1.03029C12.2653 1.03029 12.2653 1.03029 12.2653 1.03029C12.2653 1.03029 12.2653 1.03029 12.2653 1.03029C12.2653 1.03029 12.2653 1.03029 12.2653 1.03029C12.2653 1.03029 12.2653 1.03029 12.2653 1.03029C12.2653 1.03029 12.2653 1.03029 12.2653 1.03029C12.2653 1.03029 12.2653 1.03029 12.2653 1.03029C12.2653 1.03029 12.2653 1.03029 12.2653 1.03029C12.2653 1.03029 12.2653 1.03029 12.2653 1.03029C12.2653 1.03029 12.2653 1.03029 12.2653 1.03029C12.2653 1.03029 12.2653 1.03029 12.2653 1.03029C12.2653 1.03029 12.2653 1.03029 12.2653 1.03029C12.2653 1.03029 12.2653 1.03028 12.2653 1.03028C12.2653 1.03028 12.2653 1.03028 12.2653 1.03028C12.2653 1.03028 12.2653 1.03028 12.2653 1.03028C12.2653 1.03028 12.2653 1.03028 12.2653 1.03028C12.2653 1.03028 12.2653 1.03028 12.2653 1.03028C12.2653 1.03028 12.2653 1.03028 12.2653 1.03028C12.2653 1.03028 12.2653 1.03028 12.2653 1.03028C12.2653 1.03028 12.2653 1.03028 12.2653 1.03028C12.2653 1.03028 12.2653 1.03028 12.2653 1.03028C12.2653 1.03028 12.2653 1.03028 12.2653 1.03028C12.2653 1.03028 12.2653 1.03028 12.2653 1.03028C12.2653 1.03028 12.2653 1.03028 12.2653 1.03028C12.2653 1.03028 12.2653 1.03028 12.2653 1.03028C12.2653 1.03028 12.2653 1.03028 12.2653 1.03028C12.2653 1.03028 12.2653 1.03028 12.2653 1.03028C12.2653 1.03028 12.2653 1.03028 12.2653 1.03028C12.2653 1.03028 12.2653 1.03028 12.2653 1.03028C12.2653 1.03028 12.2653 1.03028 12.2653 1.03028C12.2653 1.03028 12.2653 1.03028 12.2653 1.03028C12.2653 1.03028 12.2653 1.03028 12.2653 1.03028C12.2653 1.03028 12.2653 1.03028 12.2653 1.03028C12.2653 1.03028 12.2653 1.03028 12.2653 1.03028C12.2653 1.03028 12.2653 1.03028 12.2653 1.03028C12.2653 1.03028 12.2653 1.03028 12.2653 1.03028C12.2653 1.03028 12.2653 1.03028 12.2653 1.03028C12.2653 1.03028 12.2653 1.03028 12.2653 1.03028C12.2653 1.03028 12.2653 1.03028 12.2653 1.03028C12.2653 1.03028 12.2653 1.03028 12.2653 1.03028C12.2653 1.03028 12.2653 1.03028 12.2653 1.03028C12.2653 1.03028 12.2653 1.03028 12.2653 1.03028C12.2653 1.03028 12.2653 1.03028 12.2653 1.03028C12.2653 1.03028 12.2653 1.03028 12.2653 1.03028C12.2653 1.03028 12.2653 1.03028 12.2653 1.03028C12.2653 1.03028 12.2653 1.03028 12.2653 1.03028C12.2653 1.03028 12.2653 1.03028 12.2653 1.03028C12.2653 1.03028 12.2653 1.03027 12.2653 1.03027C12.2653 1.03027 12.2653 1.03027 12.2653 1.03027C12.2653 1.03027 12.2653 1.03027 12.2653 1.03027C12.2653 1.03027 12.2653 1.03027 12.2653 1.03027C12.2653 1.03027 12.2653 1.03027 12.2653 1.03027C12.2653 1.03027 12.2653 1.03027 12.2653 1.03027H11.9407ZM16.4092 0.867961H12.103V1.19259H16.4092V0.867961ZM16.5715 1.03061V1.03027H16.2469V1.03061H16.5715ZM22.5607 7.01981C19.253 7.01981 16.5715 4.33836 16.5715 1.03061H16.2469C16.2469 4.51764 19.0737 7.34444 22.5607 7.34444V7.01981ZM28.5499 1.03061C28.5499 4.33836 25.8684 7.01981 22.5607 7.01981V7.34444C26.0477 7.34444 28.8745 4.51764 28.8745 1.03061H28.5499ZM28.5499 1.03027V1.03061H28.8745V1.03027H28.5499ZM37.9394 0.867961H28.7122V1.19259H37.9394V0.867961ZM38.1017 23.6722V1.03027H37.777V23.6722H38.1017ZM29.8237 31.9502C34.3955 31.9502 38.1017 28.244 38.1017 23.6722H37.777C37.777 28.0647 34.2162 31.6255 29.8237 31.6255V31.9502ZM7.18178 31.9502H29.8237V31.6255H7.18178V31.9502ZM7.01947 22.5607V31.7878H7.34409V22.5607H7.01947ZM0.867991 16.4092C0.867991 19.8962 3.69477 22.723 7.18178 22.723L7.18178 22.3984C3.87405 22.3984 1.19262 19.7169 1.19262 16.4092H0.867991ZM7.18178 10.0953C3.69477 10.0954 0.867991 12.9222 0.867991 16.4092H1.19262C1.19262 13.1014 3.87405 10.42 7.18178 10.42L7.18178 10.0953ZM7.01947 5.95163V10.2577H7.34409V5.95163H7.01947ZM7.1818 5.78932C7.1818 5.78932 7.1818 5.78932 7.1818 5.78932C7.1818 5.78932 7.1818 5.78932 7.1818 5.78932H7.1818H7.1818C7.1818 5.78932 7.1818 5.78932 7.1818 5.78932C7.1818 5.78932 7.1818 5.78932 7.1818 5.78932C7.1818 5.78932 7.1818 5.78932 7.1818 5.78932H7.1818H7.18179C7.18179 5.78932 7.18179 5.78932 7.18179 5.78932C7.18179 5.78932 7.18179 5.78932 7.18179 5.78932C7.18179 5.78932 7.18179 5.78932 7.18179 5.78932H7.18179H7.18179C7.18179 5.78932 7.18179 5.78932 7.18179 5.78932C7.18179 5.78932 7.18179 5.78932 7.18179 5.78932C7.18179 5.78932 7.18179 5.78932 7.18179 5.78932C7.18179 5.78932 7.18179 5.78932 7.18179 5.78932H7.18179C7.18179 5.78932 7.18179 5.78932 7.18179 5.78932C7.18179 5.78932 7.18179 5.78932 7.18179 5.78932C7.18179 5.78932 7.18179 5.78932 7.18179 5.78932C7.18179 5.78932 7.18179 5.78932 7.18179 5.78932H7.18179C7.18179 5.78932 7.18179 5.78932 7.18179 5.78932C7.18179 5.78932 7.18179 5.78932 7.18179 5.78932C7.18179 5.78932 7.18179 5.78932 7.18179 5.78932C7.18179 5.78932 7.18179 5.78932 7.18179 5.78932H7.18179H7.18178C7.18178 5.78932 7.18178 5.78932 7.18178 5.78932C7.18178 5.78932 7.18178 5.78932 7.18178 5.78932C7.18178 5.78932 7.18178 5.78932 7.18178 5.78932H7.18178H7.18178C7.18178 5.78932 7.18178 5.78932 7.18178 5.78932C7.18178 5.78932 7.18178 5.78932 7.18178 5.78932C7.18178 5.78932 7.18178 5.78932 7.18178 5.78932H7.18178H7.18178C7.18178 5.78932 7.18178 5.78932 7.18178 5.78932C7.18178 5.78932 7.18178 5.78932 7.18178 5.78932V6.11394C7.18178 6.11394 7.18178 6.11394 7.18178 6.11394C7.18178 6.11394 7.18178 6.11394 7.18178 6.11394H7.18178H7.18178C7.18178 6.11394 7.18178 6.11394 7.18178 6.11394C7.18178 6.11394 7.18178 6.11394 7.18178 6.11394C7.18178 6.11394 7.18178 6.11394 7.18178 6.11394H7.18178H7.18178C7.18178 6.11394 7.18178 6.11394 7.18178 6.11394C7.18178 6.11394 7.18178 6.11394 7.18178 6.11394C7.18178 6.11394 7.18178 6.11394 7.18178 6.11394H7.18179H7.18179C7.18179 6.11394 7.18179 6.11394 7.18179 6.11394C7.18179 6.11394 7.18179 6.11394 7.18179 6.11394C7.18179 6.11394 7.18179 6.11394 7.18179 6.11394C7.18179 6.11394 7.18179 6.11394 7.18179 6.11394H7.18179C7.18179 6.11394 7.18179 6.11394 7.18179 6.11394C7.18179 6.11394 7.18179 6.11394 7.18179 6.11394C7.18179 6.11394 7.18179 6.11394 7.18179 6.11394C7.18179 6.11394 7.18179 6.11394 7.18179 6.11394H7.18179C7.18179 6.11394 7.18179 6.11394 7.18179 6.11394C7.18179 6.11394 7.18179 6.11394 7.18179 6.11394C7.18179 6.11394 7.18179 6.11394 7.18179 6.11394C7.18179 6.11394 7.18179 6.11394 7.18179 6.11394H7.18179H7.18179C7.18179 6.11394 7.18179 6.11394 7.18179 6.11394C7.18179 6.11394 7.18179 6.11394 7.18179 6.11394C7.18179 6.11394 7.18179 6.11394 7.18179 6.11394H7.1818H7.1818C7.1818 6.11394 7.1818 6.11394 7.1818 6.11394C7.1818 6.11394 7.1818 6.11394 7.1818 6.11394C7.1818 6.11394 7.1818 6.11394 7.1818 6.11394H7.1818H7.1818C7.1818 6.11394 7.1818 6.11394 7.1818 6.11394C7.1818 6.11394 7.1818 6.11394 7.1818 6.11394V5.78932Z" fill="black"/>
</svg>
